<svg width="24" height="20" viewBox="0 0 24 20" fill="none" xmlns="http://www.w3.org/2000/svg">
<path id="Path" d="M13.4454 19.8143L10.8421 17.2454C10.5912 16.9978 10.5912 16.5928 10.8421 16.3455L14.7867 12.453L0.644954 12.453C0.290229 12.453 0 12.1666 0 11.8165L0 8.18346C0 7.83342 0.290229 7.54702 0.644954 7.54702L14.7867 7.54702L10.8421 3.65452C10.5912 3.40695 10.5912 3.0019 10.8421 2.75461L13.4454 0.185672C13.6963 -0.0618907 14.1067 -0.0618907 14.3573 0.185672L23.8141 9.51728C23.948 9.64942 24.0081 9.82606 23.9991 10C24.0081 10.1739 23.948 10.3506 23.8141 10.4827L14.3576 19.8143C14.1067 20.0619 13.6963 20.0619 13.4454 19.8143Z" fill="#191919"/>
</svg>
