<svg width="225" height="226" viewBox="0 0 225 226" fill="none" xmlns="http://www.w3.org/2000/svg">
<path fill-rule="evenodd" clip-rule="evenodd" d="M102.236 108.363C100.392 112.529 103.207 121.244 107.911 122.24C113.199 123.358 118.665 122.541 121.182 117.005C123.783 111.289 121.821 105.903 116.237 103.304C111.019 100.876 105.294 100.999 102.236 108.363ZM133.661 192.9C132.134 194.583 130.402 196.081 128.487 197.336C119.2 203.424 106.235 203.58 96.4052 197.954C86.5745 192.328 80.2431 181.278 80.2319 170.212C80.224 162.814 82.789 155.723 85.4669 148.864C85.8937 147.77 86.2439 146.335 85.3199 145.562C84.6001 144.961 83.527 145.157 82.6394 145.431C73.2471 148.34 65.7697 156.004 56.0251 157.569C49.1788 158.669 41.9815 156.496 36.2086 152.562C27.7291 146.78 22.045 136.988 21.8996 126.952C21.7562 116.916 27.3884 106.986 36.3679 102.37C42.6136 99.1592 49.9501 98.5461 57.0649 98.6902C59.1756 98.7321 61.5805 98.7209 62.9617 97.1836C66.2236 93.5545 58.6202 91.2025 56.7599 89.9453C52.8472 87.3017 49.7461 83.0581 47.7105 78.9185C43.5357 70.4285 43.2764 60.2975 47.1674 51.8261C53.0081 39.1083 67.8873 32.1507 81.9763 35.7605C88.8237 37.5138 94.3803 41.5044 98.6928 46.9833C101.817 50.9536 103.226 56.049 106.351 60.0818C107.299 61.3052 108.763 62.3501 110.297 62.1442C113.193 61.7559 115.292 56.0348 116.911 53.8693C119.469 50.4462 122.256 47.1195 125.533 44.3337C132.051 38.7921 140.05 35.974 148.808 37.3356C160.446 39.1448 170.67 48.368 173.503 59.6136C177.202 74.2889 167.799 87.3245 156.516 95.6074C155.736 96.1802 147.651 102.346 149.49 102.329C155.244 102.275 160.119 102.021 164.982 102.239C170.426 102.485 175.063 105.396 179.723 107.828C189.827 113.099 195.611 127.323 192.821 139.251C190.282 150.106 179.947 158.203 168.54 158.993C156.545 159.823 148.41 155.123 139.165 148.236C130.246 141.592 139.821 165.395 140.494 168.556C142.329 177.192 139.536 186.418 133.661 192.9Z" fill="#FF5B33"/>
<path d="M107.911 122.24L107.808 122.729L107.808 122.729L107.911 122.24ZM121.182 117.005L120.727 116.798L120.727 116.798L121.182 117.005ZM116.237 103.304L116.026 103.757L116.026 103.757L116.237 103.304ZM128.487 197.336L128.213 196.918L128.213 196.918L128.487 197.336ZM96.4052 197.954L96.6536 197.52L96.6536 197.52L96.4052 197.954ZM80.2319 170.212L80.7319 170.211L80.7319 170.211L80.2319 170.212ZM85.4669 148.864L85.9327 149.045L85.9327 149.045L85.4669 148.864ZM85.3199 145.562L85.6407 145.178L85.6404 145.178L85.3199 145.562ZM82.6394 145.431L82.4922 144.953L82.4914 144.953L82.6394 145.431ZM56.0251 157.569L56.1044 158.063L56.1044 158.063L56.0251 157.569ZM36.2086 152.562L35.927 152.975L35.927 152.975L36.2086 152.562ZM21.8996 126.952L21.3996 126.959L21.3996 126.959L21.8996 126.952ZM36.3679 102.37L36.5965 102.815L36.5965 102.815L36.3679 102.37ZM57.0649 98.6902L57.0548 99.1901L57.055 99.1901L57.0649 98.6902ZM62.9617 97.1836L62.5899 96.8494L62.5898 96.8494L62.9617 97.1836ZM56.7599 89.9453L57.0399 89.5311L57.0398 89.531L56.7599 89.9453ZM47.7105 78.9185L47.2618 79.1392L47.2618 79.1392L47.7105 78.9185ZM47.1674 51.8261L47.6217 52.0348L47.6217 52.0348L47.1674 51.8261ZM81.9763 35.7605L81.8522 36.2449L81.8522 36.2449L81.9763 35.7605ZM98.6928 46.9833L99.0857 46.6741L99.0857 46.674L98.6928 46.9833ZM106.351 60.0818L105.955 60.3881L105.955 60.3881L106.351 60.0818ZM110.297 62.1442L110.231 61.6487L110.231 61.6486L110.297 62.1442ZM116.911 53.8693L117.311 54.1687L117.312 54.1686L116.911 53.8693ZM125.533 44.3337L125.857 44.7147L125.857 44.7146L125.533 44.3337ZM148.808 37.3356L148.731 37.8297L148.731 37.8297L148.808 37.3356ZM173.503 59.6136L173.018 59.7357L173.018 59.7358L173.503 59.6136ZM156.516 95.6074L156.812 96.0105L156.812 96.0105L156.516 95.6074ZM149.49 102.329L149.494 102.829L149.494 102.829L149.49 102.329ZM164.982 102.239L165.004 101.74L165.004 101.74L164.982 102.239ZM179.723 107.828L179.492 108.271L179.492 108.271L179.723 107.828ZM192.821 139.251L193.308 139.365L193.308 139.365L192.821 139.251ZM168.54 158.993L168.505 158.494L168.505 158.494L168.54 158.993ZM139.165 148.236L139.463 147.835L139.463 147.835L139.165 148.236ZM140.494 168.556L140.983 168.452L140.983 168.451L140.494 168.556ZM101.779 108.161C100.782 110.413 101.066 113.781 102.15 116.666C103.229 119.537 105.197 122.176 107.808 122.729L108.015 121.751C105.92 121.307 104.129 119.091 103.086 116.314C102.047 113.551 101.846 110.479 102.693 108.565L101.779 108.161ZM107.808 122.729C110.502 123.299 113.286 123.386 115.739 122.593C118.212 121.795 120.319 120.111 121.637 117.212L120.727 116.798C119.528 119.435 117.644 120.927 115.432 121.642C113.201 122.362 110.608 122.299 108.015 121.751L107.808 122.729ZM121.637 117.212C122.982 114.256 123.164 111.344 122.249 108.815C121.334 106.286 119.342 104.197 116.448 102.851L116.026 103.757C118.716 105.009 120.497 106.913 121.309 109.156C122.121 111.399 121.983 114.038 120.727 116.798L121.637 117.212ZM116.448 102.851C113.784 101.611 110.922 100.989 108.299 101.678C105.649 102.374 103.348 104.38 101.774 108.171L102.698 108.555C104.182 104.981 106.273 103.244 108.554 102.645C110.862 102.038 113.471 102.569 116.026 103.757L116.448 102.851ZM133.29 192.564C131.791 194.217 130.091 195.687 128.213 196.918L128.761 197.754C130.713 196.475 132.478 194.949 134.031 193.236L133.29 192.564ZM128.213 196.918C119.091 202.897 106.329 203.058 96.6536 197.52L96.1568 198.388C106.141 204.103 119.308 203.951 128.761 197.754L128.213 196.918ZM96.6536 197.52C86.9785 191.983 80.7429 181.099 80.7319 170.211L79.7319 170.212C79.7433 181.457 86.1705 192.673 96.1568 198.388L96.6536 197.52ZM80.7319 170.211C80.7241 162.92 83.2528 155.91 85.9327 149.045L85.0012 148.682C82.3252 155.536 79.7239 162.709 79.7319 170.212L80.7319 170.211ZM85.9327 149.045C86.1527 148.482 86.3706 147.789 86.3995 147.114C86.4288 146.432 86.2645 145.7 85.6407 145.178L84.9991 145.945C85.2993 146.197 85.4219 146.569 85.4004 147.071C85.3786 147.581 85.208 148.152 85.0011 148.682L85.9327 149.045ZM85.6404 145.178C85.1582 144.775 84.5771 144.659 84.0338 144.669C83.4946 144.678 82.9516 144.812 82.4922 144.953L82.7866 145.909C83.2148 145.777 83.6522 145.675 84.0513 145.668C84.4465 145.661 84.7618 145.747 84.9994 145.946L85.6404 145.178ZM82.4914 144.953C77.7274 146.429 73.4504 149.11 69.2132 151.571C64.9521 154.047 60.7176 156.309 55.9458 157.076L56.1044 158.063C61.0772 157.264 65.4537 154.912 69.7155 152.436C74.0013 149.947 78.1591 147.342 82.7873 145.909L82.4914 144.953ZM55.9458 157.076C49.2527 158.15 42.1826 156.028 36.4903 152.148L35.927 152.975C41.7804 156.965 49.1048 159.187 56.1044 158.063L55.9458 157.076ZM36.4903 152.148C28.1322 146.45 22.5424 136.802 22.3995 126.945L21.3996 126.959C21.5476 137.173 27.326 147.111 35.927 152.975L36.4903 152.148ZM22.3995 126.945C22.2587 117.089 27.7952 107.339 36.5965 102.815L36.1393 101.926C26.9816 106.633 21.2537 116.744 21.3996 126.959L22.3995 126.945ZM36.5965 102.815C42.7292 99.6619 49.9635 99.0465 57.0548 99.1901L57.075 98.1903C49.9368 98.0458 42.4979 98.6565 36.1393 101.926L36.5965 102.815ZM57.055 99.1901C58.1067 99.211 59.283 99.2209 60.3768 99.021C61.4753 98.8201 62.542 98.3989 63.3337 97.5178L62.5898 96.8494C62.0003 97.5056 61.1739 97.8586 60.197 98.0373C59.2153 98.2167 58.1338 98.2113 57.0749 98.1903L57.055 99.1901ZM63.3336 97.5178C63.7816 97.0194 64.0691 96.514 64.1939 96.0003C64.3201 95.481 64.2725 94.9839 64.0982 94.5219C63.7594 93.624 62.9498 92.8777 62.0669 92.2643C61.1703 91.6415 60.1175 91.1021 59.1931 90.6476C58.2408 90.1795 57.4674 89.82 57.0399 89.5311L56.4799 90.3596C56.9826 90.6992 57.8572 91.1052 58.7519 91.545C59.6744 91.9986 60.6673 92.5097 61.4964 93.0856C62.3391 93.6711 62.9351 94.2718 63.1626 94.8749C63.2715 95.1634 63.2973 95.4552 63.2222 95.7641C63.1458 96.0786 62.9573 96.4406 62.5899 96.8494L63.3336 97.5178ZM57.0398 89.531C53.2227 86.9519 50.1711 82.7893 48.1592 78.6979L47.2618 79.1392C49.3211 83.3269 52.4718 87.6514 56.48 90.3596L57.0398 89.531ZM48.1592 78.6979C44.048 70.3373 43.7961 60.3639 47.6217 52.0348L46.713 51.6174C42.7567 60.231 43.0233 70.5197 47.2618 79.1392L48.1592 78.6979ZM47.6217 52.0348C53.3577 39.5451 67.9881 32.6927 81.8522 36.2449L82.1003 35.2762C67.7864 31.6087 52.6585 38.6716 46.713 51.6174L47.6217 52.0348ZM81.8522 36.2449C88.5788 37.9672 94.0455 41.8875 98.2999 47.2925L99.0857 46.674C94.7151 41.1214 89.0686 37.0603 82.1003 35.2762L81.8522 36.2449ZM98.2998 47.2925C99.8252 49.2308 100.937 51.4505 102.074 53.7321C103.203 55.9983 104.358 58.326 105.955 60.3881L106.746 59.7756C105.219 57.8049 104.106 55.5685 102.969 53.2861C101.839 51.0193 100.685 48.7061 99.0857 46.6741L98.2998 47.2925ZM105.955 60.3881C106.943 61.663 108.564 62.8813 110.364 62.6398L110.231 61.6486C108.962 61.8189 107.654 60.9474 106.746 59.7755L105.955 60.3881ZM110.364 62.6398C111.241 62.5222 112.01 62.0087 112.677 61.3468C113.347 60.6818 113.955 59.8247 114.508 58.9375C115.061 58.0491 115.573 57.1044 116.039 56.2637C116.512 55.4108 116.931 54.678 117.311 54.1687L116.511 53.57C116.082 54.1434 115.631 54.9379 115.165 55.7788C114.692 56.632 114.195 57.5478 113.659 58.409C113.122 59.2713 112.561 60.0526 111.973 60.6372C111.381 61.2248 110.802 61.5721 110.231 61.6487L110.364 62.6398ZM117.312 54.1686C119.86 50.7584 122.621 47.4655 125.857 44.7147L125.21 43.9527C121.891 46.7736 119.078 50.1341 116.51 53.57L117.312 54.1686ZM125.857 44.7146C132.281 39.253 140.138 36.4935 148.731 37.8297L148.884 36.8415C139.963 35.4544 131.821 38.3312 125.21 43.9528L125.857 44.7146ZM148.731 37.8297C160.175 39.6086 170.236 48.6887 173.018 59.7357L173.988 59.4914C171.105 48.0472 160.717 38.6809 148.884 36.8415L148.731 37.8297ZM173.018 59.7358C176.641 74.1114 167.446 86.9637 156.22 95.2044L156.812 96.0105C168.152 87.6852 177.762 74.4664 173.988 59.4914L173.018 59.7358ZM156.22 95.2043C155.823 95.4961 153.597 97.1883 151.697 98.8088C150.751 99.615 149.864 100.422 149.326 101.037C149.19 101.192 149.07 101.343 148.975 101.484C148.884 101.618 148.795 101.773 148.75 101.935C148.706 102.091 148.677 102.374 148.892 102.604C149.082 102.806 149.341 102.83 149.494 102.829L149.485 101.829C149.409 101.83 149.516 101.807 149.622 101.921C149.681 101.984 149.709 102.058 149.716 102.119C149.72 102.146 149.719 102.167 149.717 102.181C149.716 102.194 149.714 102.201 149.714 102.202C149.713 102.203 149.717 102.189 149.733 102.159C149.748 102.129 149.771 102.091 149.803 102.044C149.867 101.949 149.959 101.833 150.079 101.696C150.564 101.141 151.402 100.374 152.345 99.5697C154.223 97.9685 156.429 96.2915 156.812 96.0105L156.22 95.2043ZM149.494 102.829C155.277 102.775 160.114 102.521 164.96 102.739L165.004 101.74C160.124 101.521 155.21 101.776 149.485 101.829L149.494 102.829ZM164.959 102.739C170.263 102.978 174.775 105.809 179.492 108.271L179.954 107.385C175.352 104.982 170.589 101.991 165.004 101.74L164.959 102.739ZM179.492 108.271C184.417 110.841 188.319 115.611 190.645 121.234C192.97 126.856 193.702 133.287 192.334 139.138L193.308 139.365C194.729 133.287 193.964 126.643 191.569 120.852C189.175 115.063 185.133 110.086 179.954 107.384L179.492 108.271ZM192.334 139.138C189.85 149.756 179.717 157.718 168.505 158.494L168.574 159.491C180.177 158.689 190.714 150.455 193.308 139.365L192.334 139.138ZM168.505 158.494C156.694 159.312 148.681 154.702 139.463 147.835L138.866 148.637C148.139 155.545 156.396 160.335 168.574 159.491L168.505 158.494ZM139.463 147.835C138.339 146.997 137.391 146.544 136.616 146.572C136.201 146.587 135.841 146.74 135.562 147.021C135.295 147.292 135.131 147.652 135.031 148.039C134.834 148.806 134.853 149.832 134.992 150.973C135.133 152.126 135.404 153.45 135.747 154.839C136.433 157.617 137.42 160.697 138.273 163.27C138.702 164.563 139.093 165.717 139.403 166.659C139.714 167.607 139.927 168.296 140.005 168.66L140.983 168.451C140.892 168.025 140.659 167.279 140.353 166.347C140.044 165.407 139.647 164.235 139.223 162.956C138.37 160.384 137.394 157.336 136.718 154.599C136.379 153.23 136.119 151.95 135.985 150.852C135.849 149.741 135.85 148.868 135.999 148.288C136.073 148.002 136.173 147.827 136.273 147.725C136.363 147.634 136.476 147.578 136.652 147.572C137.057 147.557 137.761 147.814 138.866 148.637L139.463 147.835ZM140.005 168.66C141.804 177.128 139.066 186.192 133.29 192.564L134.031 193.236C140.007 186.643 142.854 177.257 140.983 168.452L140.005 168.66Z" fill="black"/>
</svg>
