<svg width="206" height="122" viewBox="0 0 206 122" fill="none" xmlns="http://www.w3.org/2000/svg">
<g id="Fill 9">
<path fill-rule="evenodd" clip-rule="evenodd" d="M111.594 43.1972C95.2378 44.765 77.8589 43.878 60.7208 46.6727C58.1289 47.0963 55.5527 47.8767 53.0934 48.8245C50.7275 49.7375 49.2836 51.7618 49.4193 54.3571C49.5648 57.1479 51.3006 58.9987 53.9574 59.7054C57.4477 60.6363 61.0118 60.7848 64.6249 60.6133C67.727 60.4648 70.8664 60.4449 73.9508 60.7569C76.7718 61.0429 79.9259 61.8423 80.5334 65.0964C81.1939 68.6317 78.4113 70.3649 75.6208 71.7135C72.9276 73.0161 70.0909 73.8135 67.1677 74.3935C57.7888 76.2564 48.2634 76.2713 38.7793 76.7986C36.2817 76.9371 33.7959 77.1733 31.4458 78.1122C29.4318 78.9175 27.8385 80.1584 28.1117 82.6501C28.3761 85.0641 30.0952 86.1176 32.2075 86.5661C34.3395 87.0176 36.5392 87.1791 38.6417 87.7312C41.0577 88.3651 43.8157 89.0917 44.2099 92.0678C44.6129 95.0958 42.0887 96.4144 39.8624 97.5875C34.8928 100.208 29.8623 102.709 24.8809 105.308C18.948 108.405 13.5744 112.084 11.4759 119.043C11.1948 119.975 10.6866 121.101 9.72044 120.993C8.193 120.82 7.92565 119.244 7.91287 118.043C7.8421 112.055 10.2846 107.186 15.3103 104.142C19.297 101.729 23.7309 100.088 27.8994 97.9662C29.4888 97.1579 31.9077 96.4493 31.4792 94.2027C31.028 91.8376 28.5216 92.2961 26.7484 92.2851C21.1134 92.2482 15.5521 91.716 10.0478 90.4701C6.14854 89.5871 2.78305 87.8847 2.09894 83.5481C1.46791 79.5554 4.33408 77.1384 7.16487 75.1341C11.0405 72.3912 15.612 71.1573 20.0322 69.6154C22.5258 68.7463 24.9929 67.7626 27.3824 66.6393C28.5757 66.0792 30.3488 65.535 30.0579 63.7948C29.7502 61.9609 27.8886 62.3735 26.5872 62.2021C21.9567 61.5931 17.2967 61.1854 12.6849 60.4569C8.71001 59.8289 5.21281 57.8884 2.96292 54.5166C-0.981506 48.6013 1.20941 41.3025 7.82539 37.1164C12.5738 34.1134 17.8118 32.6283 23.321 32.3513C31.7249 31.9277 40.1416 31.6615 48.5553 31.5509C54.21 31.4762 59.6603 29.9692 65.254 29.5047C67.4184 29.3243 69.1267 28.1363 69.4157 25.7193C69.6968 23.3781 67.8568 22.4023 66.2792 21.4505C64.6377 20.4588 62.7142 20.4558 60.8348 20.3362C53.4728 19.8637 46.2189 21.2053 38.91 21.587C33.3487 21.8781 28.9855 19.2368 28.0547 15.285C27.0079 10.8507 29.1202 7.50382 34.6373 4.61841C36.6404 3.56989 38.7449 3.29879 40.9407 3.10942C48.3528 2.47154 55.6323 3.8081 62.7348 5.37988C84.0876 10.1052 105.143 7.70415 126.341 4.21873C147.956 0.663548 169.772 0.199091 191.605 2.11074C194.858 2.39579 198.168 2.83832 201.108 4.39315C206.142 7.0573 206.34 12.1653 201.426 15.0208C197.439 17.3361 192.92 18.0577 188.364 18.0916C180.7 18.1484 173.132 16.9564 165.591 15.7893C150.151 13.3992 134.832 13.9494 119.594 17.2614C117.628 17.688 115.724 18.4574 113.832 19.181C112.522 19.6824 111.178 20.2634 111.298 22.1173C111.404 23.7389 112.392 24.7017 113.683 25.3774C115.563 26.3582 117.582 26.2884 119.629 26.0711C123.807 25.6266 127.941 24.7515 132.187 24.9489C136.46 25.1492 139.96 26.4997 140.965 31.1572C141.976 35.8506 139.219 38.5028 135.459 40.4464C130.71 42.9012 125.549 42.9909 120.414 43.1793C117.767 43.2779 115.115 43.1972 111.594 43.1972Z" fill="#4074FF"/>
<path d="M111.594 43.1972C95.2378 44.765 77.8589 43.878 60.7208 46.6727C58.1289 47.0963 55.5527 47.8767 53.0934 48.8245C50.7275 49.7375 49.2837 51.7618 49.4193 54.3571C49.5648 57.1479 51.3006 58.9987 53.9574 59.7054C57.4477 60.6363 61.0118 60.7848 64.6249 60.6133C67.727 60.4648 70.8664 60.4449 73.9508 60.7569C76.7718 61.0429 79.9259 61.8423 80.5334 65.0964C81.1939 68.6317 78.4113 70.3649 75.6208 71.7135C72.9276 73.0161 70.0909 73.8135 67.1677 74.3935C57.7888 76.2564 48.2634 76.2713 38.7793 76.7986C36.2817 76.9371 33.7959 77.1733 31.4458 78.1122C29.4318 78.9175 27.8385 80.1584 28.1117 82.6501C28.3761 85.0641 30.0952 86.1176 32.2075 86.5661C34.3395 87.0176 36.5392 87.1791 38.6417 87.7312C41.0577 88.3651 43.8157 89.0917 44.2099 92.0678C44.6129 95.0958 42.0887 96.4144 39.8624 97.5875C34.8928 100.208 29.8623 102.709 24.8809 105.308C18.948 108.405 13.5744 112.084 11.4759 119.043C11.1948 119.975 10.6866 121.101 9.72044 120.993C8.193 120.82 7.92565 119.244 7.91287 118.043C7.8421 112.055 10.2846 107.186 15.3103 104.142C19.297 101.729 23.7309 100.088 27.8994 97.9662C29.4888 97.1579 31.9077 96.4493 31.4792 94.2027C31.028 91.8376 28.5216 92.2961 26.7484 92.2851C21.1134 92.2482 15.5521 91.716 10.0478 90.4701C6.14854 89.5871 2.78305 87.8847 2.09894 83.5481C1.46791 79.5554 4.33408 77.1384 7.16487 75.1341C11.0405 72.3912 15.612 71.1573 20.0322 69.6154C22.5258 68.7463 24.9929 67.7626 27.3824 66.6393C28.5757 66.0792 30.3488 65.535 30.0579 63.7948C29.7502 61.9609 27.8886 62.3735 26.5872 62.2021C21.9567 61.5931 17.2967 61.1854 12.6849 60.4569C8.71001 59.8289 5.21281 57.8884 2.96292 54.5166C-0.981506 48.6013 1.20941 41.3025 7.82539 37.1164C12.5738 34.1134 17.8118 32.6283 23.321 32.3513C31.7249 31.9277 40.1416 31.6615 48.5553 31.5509C54.21 31.4762 59.6603 29.9692 65.254 29.5047C67.4184 29.3243 69.1267 28.1363 69.4157 25.7193C69.6968 23.3781 67.8568 22.4023 66.2792 21.4505C64.6377 20.4588 62.7142 20.4558 60.8348 20.3362C53.4728 19.8637 46.2189 21.2053 38.91 21.587C33.3487 21.8781 28.9855 19.2368 28.0547 15.285C27.0079 10.8507 29.1202 7.50382 34.6373 4.61841C36.6404 3.56989 38.7449 3.29879 40.9407 3.10942C48.3528 2.47154 55.6323 3.8081 62.7348 5.37988C84.0876 10.1052 105.143 7.70415 126.341 4.21873C147.956 0.663548 169.772 0.199091 191.605 2.11074C194.858 2.39579 198.168 2.83832 201.108 4.39315C206.142 7.0573 206.34 12.1653 201.426 15.0208C197.439 17.3361 192.92 18.0577 188.364 18.0916C180.7 18.1484 173.132 16.9564 165.591 15.7893C150.151 13.3992 134.832 13.9494 119.594 17.2614C117.628 17.688 115.724 18.4574 113.832 19.181C112.522 19.6824 111.178 20.2634 111.298 22.1173C111.404 23.7389 112.392 24.7017 113.683 25.3774C115.563 26.3582 117.582 26.2884 119.629 26.0711C123.807 25.6266 127.941 24.7515 132.187 24.9489C136.46 25.1492 139.96 26.4997 140.965 31.1572C141.976 35.8506 139.219 38.5028 135.459 40.4464C130.71 42.9012 125.549 42.9909 120.414 43.1793C117.767 43.2779 115.115 43.1972 111.594 43.1972" stroke="black"/>
</g>
</svg>
