<svg width="182" height="175" viewBox="0 0 182 175" fill="none" xmlns="http://www.w3.org/2000/svg">
<ellipse cx="119.445" cy="67.8169" rx="44" ry="50" fill="#E2FEFF" stroke="#191919"/>
<ellipse cx="92.4018" cy="50.6468" rx="11.2382" ry="12.9332" transform="rotate(-50 92.4018 50.6468)" fill="#030303"/>
<ellipse cx="91.2611" cy="46.7634" rx="2.24805" ry="2.81196" transform="rotate(-50 91.2611 46.7634)" fill="white"/>
<ellipse cx="42.9453" cy="100.122" rx="41.5" ry="53.5" fill="#E2FEFF" stroke="#191919"/>
<ellipse cx="52.2463" cy="67.1783" rx="11.2315" ry="11.7837" transform="rotate(-50 52.2463 67.1783)" fill="#030303"/>
<ellipse cx="51.6941" cy="60.8385" rx="2.24589" ry="3.92723" transform="rotate(-50 51.6941 60.8385)" fill="white"/>
<path fill-rule="evenodd" clip-rule="evenodd" d="M181.555 36.0243C175.926 36.0243 164.623 35.8043 164.431 35.7953C153.586 35.3053 146.826 23.4593 146.909 12.6033C146.939 8.47629 146.806 3.31229 146.719 1.49129C146.689 0.873289 146.183 0.987289 145.943 1.05429V14.9823C145.943 18.6783 145.076 22.3613 143.185 25.5373C141.409 28.5173 138.978 30.8573 136.011 32.6753C132.435 34.8653 128.262 35.8793 124.07 35.8793H111C111.003 36.1823 111.005 36.4843 111.008 36.7863H125.062C128.958 36.7863 132.844 37.7023 136.178 39.7193C139.006 41.4313 141.284 43.6903 142.996 46.5133C144.987 49.7963 145.886 53.6263 145.886 57.4653V71.5703C146.278 71.5663 146.67 71.5633 147.063 71.5603V58.1423C147.063 53.1633 148.576 48.2333 151.689 44.3453C153.218 42.4363 155.037 40.8273 157.171 39.5463C160.431 37.5893 164.225 36.7103 168.027 36.7103H181.562C181.56 36.4823 181.557 36.2533 181.555 36.0243Z" fill="#835AEC"/>
<mask id="mask0" mask-type="alpha" maskUnits="userSpaceOnUse" x="40" y="103" width="71" height="71">
<path fill-rule="evenodd" clip-rule="evenodd" d="M40 103H110.562V173.57H40V103Z" fill="white"/>
</mask>
<g mask="url(#mask0)">
<path fill-rule="evenodd" clip-rule="evenodd" d="M110.555 138.024C104.926 138.024 93.6227 137.804 93.4307 137.795C82.5857 137.305 75.8257 125.459 75.9087 114.603C75.9387 110.476 75.8057 105.312 75.7187 103.491C75.6887 102.873 75.1827 102.987 74.9427 103.054V116.982C74.9427 120.678 74.0757 124.361 72.1847 127.537C70.4087 130.517 67.9777 132.857 65.0107 134.675C61.4347 136.865 57.2617 137.879 53.0697 137.879H39.9997C40.0027 138.182 40.0047 138.484 40.0077 138.786H54.0617C57.9577 138.786 61.8437 139.702 65.1777 141.719C68.0057 143.431 70.2837 145.69 71.9957 148.513C73.9867 151.796 74.8857 155.626 74.8857 159.465V173.57C75.2777 173.566 75.6697 173.563 76.0627 173.56V160.142C76.0627 155.163 77.5757 150.233 80.6887 146.345C82.2177 144.436 84.0367 142.827 86.1707 141.546C89.4307 139.589 93.2247 138.71 97.0267 138.71H110.562C110.56 138.482 110.557 138.253 110.555 138.024Z" fill="#835AEC"/>
</g>
</svg>
