<svg width="211" height="211" viewBox="0 0 211 211" fill="none" xmlns="http://www.w3.org/2000/svg">
<path fill-rule="evenodd" clip-rule="evenodd" d="M158.683 145.901C156.061 149.98 151.828 148.953 148.738 147.37C140.544 143.183 136.133 131.45 138.246 119.49C139.286 113.61 141.735 108.71 145.295 105.081C146.309 104.048 147.94 104.203 148.783 105.381C161.648 123.373 162.827 139.457 158.683 145.901ZM98.0317 101.948C102.621 120.778 101.021 135.584 93.1905 142.925C88.0521 147.741 82.007 147.574 78.6059 145.485C75.6376 143.629 74.4681 140.261 75.3064 136.002C77.2505 126.134 82.5881 113.134 90.031 102.499C91.061 101.031 92.1267 99.6055 93.2297 98.2411C94.4719 96.7045 96.7964 97.2121 97.3158 99.1541C97.5682 100.094 97.8057 101.026 98.0317 101.948ZM156.998 102.393C155.952 100.827 156.854 98.6356 158.638 98.3475C159.254 98.2486 159.881 98.1687 160.518 98.1103C184.192 95.9143 190.063 99.1579 190.129 99.1966C189.932 99.0813 189.857 98.9994 189.857 98.9994L193.087 94.4383C194.085 93.0279 193.501 91.001 191.946 90.4582C187.833 89.0238 178.864 87.5427 159.897 89.3023C156.442 89.6216 153.319 90.3776 150.511 91.4798C149.634 91.8246 148.655 91.5967 148.011 90.8816C146.938 89.6892 145.823 88.5004 144.662 87.318C130.313 72.6945 117.15 73.0969 108.626 76.0117C106.348 76.7904 104.136 77.8338 101.997 79.1C100.796 79.8104 99.3027 79.2801 98.7196 77.9588C91.542 61.6836 82.1008 52.948 70.6194 51.9699C57.6909 50.8718 43.0244 59.7221 27.0204 78.2812C15.5122 91.6224 7.62552 105.054 7.29582 105.623C6.0824 107.698 6.65292 110.422 8.5732 111.708C10.4971 112.967 13.0317 112.343 14.2445 110.269C14.7195 109.45 15.263 108.55 15.8564 107.596C25.6293 91.8136 50.1805 59.1067 69.8848 60.7844C78.782 61.5443 86.3346 69.4569 92.3479 84.3212C92.7469 85.308 92.5354 86.4728 91.8003 87.2151C87.2178 91.8461 83.1417 97.3848 79.6655 103.21C73.3386 113.824 69.0081 125.4 67.2659 134.258C65.6866 142.285 68.3573 149.344 74.418 153.138C74.5721 153.233 74.7253 153.327 74.8772 153.415C82.0126 157.564 91.6693 156.019 98.5518 149.564C111.109 137.801 110.026 117.546 106.357 101.373C105.487 97.5431 104.474 93.9383 103.462 90.732C103.106 89.6015 103.518 88.3402 104.471 87.7136C106.598 86.3189 108.793 85.2039 111.047 84.432C120.375 81.2392 129.772 84.3822 138.977 93.7618C139.311 94.1041 139.641 94.4449 139.967 94.7855C140.937 95.8012 140.885 97.483 139.894 98.495C139.694 98.6981 139.497 98.903 139.303 99.1102C134.248 104.526 131.322 111.417 130.172 117.925C127.375 133.744 133.679 149.532 145.145 155.359C153.223 159.494 160.992 157.778 165.428 150.878C171.79 140.979 170.177 122.126 156.998 102.393Z" fill="white"/>
<path fill-rule="evenodd" clip-rule="evenodd" d="M158.683 145.901C156.061 149.98 151.828 148.953 148.738 147.37C140.544 143.183 136.133 131.45 138.246 119.49C139.286 113.61 141.735 108.71 145.295 105.081C146.309 104.048 147.94 104.203 148.783 105.381C161.648 123.373 162.827 139.457 158.683 145.901ZM98.0317 101.948C102.621 120.778 101.021 135.584 93.1905 142.925C88.0521 147.741 82.007 147.574 78.6059 145.485C75.6376 143.629 74.4681 140.261 75.3064 136.002C77.2505 126.134 82.5881 113.134 90.031 102.499C91.061 101.031 92.1267 99.6055 93.2297 98.2411C94.4719 96.7045 96.7964 97.2121 97.3158 99.1541C97.5682 100.094 97.8057 101.026 98.0317 101.948ZM156.998 102.393C155.952 100.827 156.854 98.6356 158.638 98.3475C159.254 98.2486 159.881 98.1687 160.518 98.1103C184.192 95.9143 190.063 99.1579 190.129 99.1966C189.932 99.0813 189.857 98.9994 189.857 98.9994L193.087 94.4383C194.085 93.0279 193.501 91.001 191.946 90.4582C187.833 89.0238 178.864 87.5427 159.897 89.3023C156.442 89.6216 153.319 90.3776 150.511 91.4798C149.634 91.8246 148.655 91.5967 148.011 90.8816C146.938 89.6892 145.823 88.5004 144.662 87.318C130.313 72.6945 117.15 73.0969 108.626 76.0117C106.348 76.7904 104.136 77.8338 101.997 79.1C100.796 79.8104 99.3027 79.2801 98.7196 77.9588C91.542 61.6836 82.1008 52.948 70.6194 51.9699C57.6909 50.8718 43.0244 59.7221 27.0204 78.2812C15.5122 91.6224 7.62552 105.054 7.29582 105.623C6.0824 107.698 6.65292 110.422 8.5732 111.708C10.4971 112.967 13.0317 112.343 14.2445 110.269C14.7195 109.45 15.263 108.55 15.8564 107.596C25.6293 91.8136 50.1805 59.1067 69.8848 60.7844C78.782 61.5443 86.3346 69.4569 92.3479 84.3212C92.7469 85.308 92.5354 86.4728 91.8003 87.2151C87.2178 91.8461 83.1417 97.3848 79.6655 103.21C73.3386 113.824 69.0081 125.4 67.2659 134.258C65.6866 142.285 68.3573 149.344 74.418 153.138C74.5721 153.233 74.7253 153.327 74.8772 153.415C82.0126 157.564 91.6693 156.019 98.5518 149.564C111.109 137.801 110.026 117.546 106.357 101.373C105.487 97.5431 104.474 93.9383 103.462 90.732C103.106 89.6015 103.518 88.3402 104.471 87.7136C106.598 86.3189 108.793 85.2039 111.047 84.432C120.375 81.2392 129.772 84.3822 138.977 93.7618C139.311 94.1041 139.641 94.4449 139.967 94.7855C140.937 95.8012 140.885 97.483 139.894 98.495C139.694 98.6981 139.497 98.903 139.303 99.1102C134.248 104.526 131.322 111.417 130.172 117.925C127.375 133.744 133.679 149.532 145.145 155.359C153.223 159.494 160.992 157.778 165.428 150.878C171.79 140.979 170.177 122.126 156.998 102.393Z" fill="#E2FEFF"/>
<path d="M158.683 145.901L159.104 146.172L159.104 146.172L158.683 145.901ZM148.738 147.37L148.966 146.925L148.966 146.925L148.738 147.37ZM138.246 119.49L137.754 119.403L137.754 119.403L138.246 119.49ZM145.295 105.081L145.652 105.431L145.652 105.431L145.295 105.081ZM148.783 105.381L148.376 105.672L148.376 105.672L148.783 105.381ZM98.0317 101.948L98.5175 101.83L98.5174 101.829L98.0317 101.948ZM93.1905 142.925L93.5324 143.29L93.5325 143.29L93.1905 142.925ZM78.6059 145.485L78.3408 145.909L78.3443 145.911L78.6059 145.485ZM75.3064 136.002L74.8158 135.906L74.8158 135.906L75.3064 136.002ZM90.031 102.499L89.6217 102.212L89.6214 102.212L90.031 102.499ZM93.2297 98.2411L92.8408 97.9267L92.8408 97.9267L93.2297 98.2411ZM97.3158 99.1541L96.8328 99.2833L96.8329 99.2837L97.3158 99.1541ZM156.998 102.393L157.414 102.115L157.414 102.115L156.998 102.393ZM158.638 98.3475L158.558 97.8538L158.558 97.8539L158.638 98.3475ZM160.518 98.1103L160.564 98.6082L160.564 98.6081L160.518 98.1103ZM190.129 99.1966L189.877 99.6283L190.383 98.766L190.129 99.1966ZM189.857 98.9994L189.449 98.7105L190.211 99.353L189.857 98.9994ZM193.087 94.4383L193.495 94.7272L193.495 94.7272L193.087 94.4383ZM191.946 90.4582L192.111 89.9861L192.111 89.986L191.946 90.4582ZM159.897 89.3023L159.943 89.8001L159.944 89.8001L159.897 89.3023ZM150.511 91.4798L150.328 91.0143L150.328 91.0145L150.511 91.4798ZM148.011 90.8816L147.639 91.216L147.64 91.2161L148.011 90.8816ZM144.662 87.318L144.305 87.6682L144.305 87.6684L144.662 87.318ZM108.626 76.0117L108.788 76.4849L108.788 76.4848L108.626 76.0117ZM101.997 79.1L102.252 79.5304L102.252 79.5303L101.997 79.1ZM98.7196 77.9588L98.2621 78.1606L98.2622 78.1607L98.7196 77.9588ZM70.6194 51.9699L70.6618 51.4718L70.6617 51.4717L70.6194 51.9699ZM27.0204 78.2812L27.399 78.6078L27.3991 78.6077L27.0204 78.2812ZM7.29582 105.623L7.72743 105.875L7.72839 105.874L7.29582 105.623ZM8.5732 111.708L8.295 112.123L8.29936 112.126L8.5732 111.708ZM14.2445 110.269L14.6761 110.521L14.677 110.52L14.2445 110.269ZM15.8564 107.596L16.2809 107.86L16.2815 107.859L15.8564 107.596ZM69.8848 60.7844L69.9274 60.2862L69.9272 60.2862L69.8848 60.7844ZM92.3479 84.3212L92.8114 84.1338L92.8114 84.1337L92.3479 84.3212ZM91.8003 87.2151L91.445 86.8633L91.4449 86.8634L91.8003 87.2151ZM79.6655 103.21L79.2361 102.954L79.236 102.954L79.6655 103.21ZM67.2659 134.258L67.7565 134.355L67.7565 134.355L67.2659 134.258ZM74.418 153.138L74.1527 153.562L74.1563 153.564L74.418 153.138ZM74.8772 153.415L74.6259 153.848L74.6259 153.848L74.8772 153.415ZM98.5518 149.564L98.21 149.199L98.2097 149.199L98.5518 149.564ZM106.357 101.373L106.845 101.263L106.845 101.263L106.357 101.373ZM103.462 90.732L102.985 90.8823L102.985 90.8825L103.462 90.732ZM104.471 87.7136L104.197 87.2955L104.197 87.2957L104.471 87.7136ZM111.047 84.432L110.885 83.9589L110.885 83.959L111.047 84.432ZM138.977 93.7618L139.334 93.4126L139.334 93.4116L138.977 93.7618ZM139.967 94.7855L140.329 94.4402L140.328 94.4396L139.967 94.7855ZM139.894 98.495L140.25 98.8455L140.251 98.845L139.894 98.495ZM139.303 99.1102L138.938 98.7691L138.938 98.7691L139.303 99.1102ZM130.172 117.925L130.664 118.012L130.664 118.012L130.172 117.925ZM145.145 155.359L145.373 154.914L145.371 154.914L145.145 155.359ZM165.428 150.878L165.848 151.149L165.848 151.149L165.428 150.878ZM158.263 145.631C157.044 147.527 155.484 148.209 153.87 148.259C152.221 148.31 150.479 147.7 148.966 146.925L148.51 147.815C150.087 148.623 152.006 149.318 153.901 149.258C155.832 149.198 157.7 148.354 159.104 146.172L158.263 145.631ZM148.966 146.925C141.037 142.873 136.647 131.41 138.738 119.577L137.754 119.403C135.618 131.491 140.05 143.492 148.511 147.816L148.966 146.925ZM138.738 119.577C139.763 113.783 142.172 108.98 145.652 105.431L144.938 104.731C141.299 108.441 138.809 113.436 137.754 119.403L138.738 119.577ZM145.652 105.431C146.44 104.628 147.707 104.737 148.376 105.672L149.189 105.09C148.173 103.668 146.177 103.468 144.938 104.731L145.652 105.431ZM148.376 105.672C154.773 114.618 158.251 123.071 159.621 130.068C160.994 137.086 160.234 142.565 158.263 145.631L159.104 146.172C161.276 142.794 161.998 137.008 160.602 129.876C159.202 122.72 155.658 114.136 149.189 105.09L148.376 105.672ZM97.546 102.067C99.8315 111.444 100.568 119.791 99.7721 126.688C98.9756 133.586 96.6507 138.996 92.8485 142.561L93.5325 143.29C97.5612 139.513 99.9517 133.85 100.765 126.803C101.579 119.754 100.822 111.283 98.5175 101.83L97.546 102.067ZM92.8486 142.561C87.8658 147.23 82.0665 147.024 78.8676 145.059L78.3443 145.911C81.9476 148.124 88.2385 148.251 93.5324 143.29L92.8486 142.561ZM78.871 145.061C76.1266 143.345 74.9866 140.216 75.797 136.099L74.8158 135.906C73.9497 140.306 75.1486 143.913 78.3408 145.909L78.871 145.061ZM75.797 136.099C77.727 126.302 83.0358 113.366 90.4407 102.785L89.6214 102.212C82.1404 112.901 76.774 125.966 74.8158 135.906L75.797 136.099ZM90.4403 102.786C91.4646 101.326 92.5235 99.9099 93.6185 98.5554L92.8408 97.9267C91.7299 99.301 90.6574 100.735 89.6217 102.212L90.4403 102.786ZM93.6185 98.5554C94.5956 97.3468 96.4156 97.7237 96.8328 99.2833L97.7988 99.0249C97.1771 96.7005 94.3482 96.0622 92.8408 97.9267L93.6185 98.5554ZM96.8329 99.2837C97.0842 100.22 97.3208 101.148 97.5461 102.067L98.5174 101.829C98.2906 100.904 98.0521 99.9684 97.7987 99.0244L96.8329 99.2837ZM157.414 102.115C156.554 100.827 157.322 99.0664 158.717 98.8411L158.558 97.8539C156.386 98.2047 155.351 100.827 156.582 102.67L157.414 102.115ZM158.717 98.8412C159.322 98.744 159.938 98.6656 160.564 98.6082L160.472 97.6124C159.824 97.6719 159.185 97.7531 158.558 97.8538L158.717 98.8412ZM160.564 98.6081C184.213 96.4145 189.95 99.6717 189.875 99.6271L190.383 98.766C190.177 98.644 184.171 95.4141 160.472 97.6124L160.564 98.6081ZM190.381 98.7649C190.303 98.7194 190.256 98.6842 190.233 98.6654C190.221 98.656 190.215 98.6506 190.215 98.65C190.214 98.6496 190.215 98.6505 190.217 98.6527C190.218 98.6537 190.22 98.6551 190.221 98.6568C190.222 98.6577 190.223 98.6586 190.224 98.6596C190.224 98.6601 190.225 98.6607 190.225 98.6612C190.226 98.6615 190.226 98.6618 190.226 98.6621C190.226 98.6622 190.227 98.6624 190.227 98.6625C190.227 98.6626 190.227 98.6627 190.227 98.6627C190.227 98.6628 190.227 98.663 189.857 98.9994C189.487 99.3359 189.487 99.3361 189.488 99.3362C189.488 99.3362 189.488 99.3363 189.488 99.3364C189.488 99.3366 189.488 99.3367 189.488 99.3369C189.489 99.3372 189.489 99.3375 189.489 99.3378C189.49 99.3384 189.49 99.3391 189.491 99.3397C189.492 99.3411 189.493 99.3425 189.495 99.344C189.498 99.3469 189.501 99.3502 189.504 99.3537C189.511 99.3608 189.52 99.369 189.529 99.3781C189.549 99.3964 189.574 99.4187 189.605 99.4441C189.669 99.4951 189.757 99.5584 189.877 99.6283L190.381 98.7649ZM190.265 99.2884L193.495 94.7272L192.679 94.1493L189.449 98.7105L190.265 99.2884ZM193.495 94.7272C194.666 93.0727 194.011 90.6493 192.111 89.9861L191.781 90.9302C192.992 91.3527 193.504 92.983 192.679 94.1493L193.495 94.7272ZM192.111 89.986C187.898 88.517 178.845 87.0423 159.851 88.8044L159.944 89.8001C178.883 88.0431 187.768 89.5307 191.782 90.9303L192.111 89.986ZM159.851 88.8044C156.351 89.1279 153.182 89.8943 150.328 91.0143L150.693 91.9452C153.456 90.8609 156.533 90.1153 159.943 89.8001L159.851 88.8044ZM150.328 91.0145C149.646 91.2825 148.888 91.1082 148.383 90.5471L147.64 91.2161C148.422 92.0853 149.622 92.3667 150.694 91.9451L150.328 91.0145ZM148.383 90.5472C147.305 89.3495 146.185 88.1554 145.019 86.9676L144.305 87.6684C145.461 88.8454 146.571 90.0288 147.639 91.216L148.383 90.5472ZM145.019 86.9678C137.787 79.5979 130.826 75.9868 124.568 74.5998C118.311 73.2132 112.795 74.0577 108.464 75.5386L108.788 76.4848C112.981 75.0509 118.308 74.2368 124.351 75.5761C130.393 76.9151 137.188 80.4146 144.305 87.6682L145.019 86.9678ZM108.464 75.5386C106.151 76.3294 103.908 77.3879 101.742 78.6698L102.252 79.5303C104.364 78.2797 106.546 77.2513 108.788 76.4849L108.464 75.5386ZM101.743 78.6696C100.822 79.2142 99.65 78.8287 99.177 77.7569L98.2622 78.1607C98.9554 79.7315 100.77 80.4066 102.252 79.5304L101.743 78.6696ZM99.1771 77.7571C91.9693 61.4134 82.4122 52.4727 70.6618 51.4718L70.5769 52.4681C81.7894 53.4233 91.1147 61.9538 98.2621 78.1606L99.1771 77.7571ZM70.6617 51.4717C57.4755 50.3517 42.663 59.3755 26.6417 77.9546L27.3991 78.6077C43.3858 60.0686 57.9063 51.3919 70.5771 52.4682L70.6617 51.4717ZM26.6418 77.9546C15.1044 91.3297 7.19973 104.792 6.86325 105.372L7.72839 105.874C8.0513 105.317 15.9201 91.9151 27.399 78.6078L26.6418 77.9546ZM6.86422 105.371C5.52621 107.658 6.14078 110.681 8.29501 112.123L8.8514 111.292C7.16506 110.163 6.63859 107.737 7.72742 105.875L6.86422 105.371ZM8.29936 112.126C10.4748 113.55 13.3265 112.83 14.6761 110.521L13.8128 110.016C12.737 111.857 10.5194 112.384 8.84704 111.289L8.29936 112.126ZM14.677 110.52C15.1489 109.706 15.6896 108.811 16.2809 107.86L15.4319 107.332C14.8364 108.289 14.2901 109.194 13.812 110.018L14.677 110.52ZM16.2815 107.859C21.1553 99.9885 29.714 87.8991 39.502 77.9941C44.3961 73.0415 49.5835 68.6495 54.7581 65.6024C59.9372 62.5527 65.0602 60.8754 69.8424 61.2826L69.9272 60.2862C64.8573 59.8545 59.5223 61.6365 54.2507 64.7407C48.9748 67.8475 43.719 72.304 38.7907 77.2913C28.9338 87.266 20.3304 99.4213 15.4313 107.333L16.2815 107.859ZM69.8423 61.2826C78.4366 62.0167 85.8841 69.6766 91.8844 84.5087L92.8114 84.1337C86.7851 69.2372 79.1273 61.072 69.9274 60.2862L69.8423 61.2826ZM91.8844 84.5087C92.2125 85.3201 92.0322 86.2704 91.445 86.8633L92.1555 87.5669C93.0386 86.6752 93.2814 85.2959 92.8114 84.1338L91.8844 84.5087ZM91.4449 86.8634C86.8278 91.5293 82.7281 97.1023 79.2361 102.954L80.0948 103.467C83.5554 97.6673 87.6077 92.1629 92.1557 87.5668L91.4449 86.8634ZM79.236 102.954C72.8827 113.613 68.5296 125.242 66.7753 134.162L67.7565 134.355C69.4866 125.558 73.7946 114.036 80.0949 103.466L79.236 102.954ZM66.7753 134.162C65.1635 142.354 67.8854 149.638 74.1527 153.562L74.6834 152.715C68.8292 149.049 66.2097 142.216 67.7565 134.355L66.7753 134.162ZM74.1563 153.564C74.3097 153.659 74.468 153.756 74.6259 153.848L75.1285 152.983C74.9827 152.898 74.8344 152.807 74.6798 152.712L74.1563 153.564ZM74.6259 153.848C81.9851 158.126 91.8796 156.507 98.8938 149.929L98.2097 149.199C91.4589 155.531 82.0402 157.001 75.1285 152.983L74.6259 153.848ZM98.8936 149.929C105.289 143.938 108.189 135.803 109.037 127.171C109.884 118.542 108.685 109.377 106.845 101.263L105.87 101.484C107.698 109.543 108.875 118.592 108.042 127.074C107.209 135.553 104.372 143.427 98.21 149.199L98.8936 149.929ZM106.845 101.263C105.971 97.4169 104.954 93.7987 103.939 90.5815L102.985 90.8825C103.993 94.0778 105.003 97.6693 105.87 101.484L106.845 101.263ZM103.939 90.5817C103.644 89.6472 103.994 88.6256 104.746 88.1315L104.197 87.2957C103.041 88.0549 102.567 89.5558 102.985 90.8823L103.939 90.5817ZM104.746 88.1317C106.842 86.7563 109 85.6614 111.209 84.905L110.885 83.959C108.586 84.7464 106.353 85.8815 104.197 87.2955L104.746 88.1317ZM111.209 84.905C120.293 81.7959 129.497 84.8157 138.62 94.112L139.334 93.4116C130.047 83.9488 120.457 80.6825 110.885 83.9589L111.209 84.905ZM138.619 94.1111C138.952 94.4524 139.281 94.792 139.606 95.1314L140.328 94.4396C140 94.0978 139.67 93.7559 139.334 93.4126L138.619 94.1111ZM139.605 95.1308C140.378 95.9404 140.35 97.3145 139.536 98.145L140.251 98.845C141.42 97.6515 141.495 95.662 140.329 94.4402L139.605 95.1308ZM139.537 98.1446C139.335 98.35 139.135 98.5581 138.938 98.7691L139.669 99.4514C139.859 99.2479 140.053 99.0461 140.25 98.8455L139.537 98.1446ZM138.938 98.7691C133.806 104.268 130.844 111.252 129.68 117.838L130.664 118.012C131.801 111.582 134.691 104.785 139.669 99.4514L138.938 98.7691ZM129.68 117.838C126.856 133.803 133.199 149.849 144.918 155.805L145.371 154.914C134.16 149.215 127.893 133.686 130.664 118.012L129.68 117.838ZM144.917 155.805C149.038 157.914 153.119 158.549 156.76 157.745C160.407 156.939 163.566 154.699 165.848 151.149L165.007 150.608C162.854 153.957 159.911 156.025 156.545 156.768C153.173 157.513 149.33 156.939 145.373 154.914L144.917 155.805ZM165.848 151.149C169.116 146.065 170.302 138.743 169.035 130.25C167.767 121.748 164.038 112.033 157.414 102.115L156.582 102.67C163.137 112.486 166.803 122.064 168.046 130.397C169.29 138.738 168.102 145.792 165.007 150.608L165.848 151.149Z" fill="black"/>
</svg>
