<svg width="151" height="226" viewBox="0 0 151 226" fill="none" xmlns="http://www.w3.org/2000/svg">
<g id="Group 9">
<path id="Fill 1" fill-rule="evenodd" clip-rule="evenodd" d="M284.462 113.836C276.342 171.668 211.818 210.294 140.344 200.108C68.8697 189.922 17.5105 134.781 25.6309 76.948C33.7512 19.1152 98.2756 -19.5101 169.749 -9.32441C241.224 0.863058 292.582 56.0029 284.462 113.836Z" fill="#FF5B33"/>
<path id="Stroke 3" fill-rule="evenodd" clip-rule="evenodd" d="M284.462 113.836C276.342 171.668 211.818 210.294 140.344 200.108C68.8697 189.922 17.5105 134.781 25.6309 76.948C33.7512 19.1152 98.2756 -19.5101 169.749 -9.32441C241.224 0.863058 292.582 56.0029 284.462 113.836Z" stroke="black"/>
<path id="Stroke 5" d="M89.2512 50.0584C89.2512 50.0584 153.723 13.9483 221.202 61.2661" stroke="black"/>
<path id="Stroke 7" fill-rule="evenodd" clip-rule="evenodd" d="M205.5 -71.4568L148.712 36.801C148.712 36.801 171.633 36.623 196.206 46.9561L251.252 -61.2021L205.5 -71.4568Z" stroke="black"/>
</g>
</svg>
