<svg width="71" height="72" viewBox="0 0 71 72" fill="none" xmlns="http://www.w3.org/2000/svg">
<g id="Group 3 Copy">
<mask id="mask0" mask-type="alpha" maskUnits="userSpaceOnUse" x="0" y="0" width="71" height="72">
<path id="Clip 2" fill-rule="evenodd" clip-rule="evenodd" d="M0 0.661743H70.5617V71.2316H0V0.661743Z" fill="white"/>
</mask>
<g mask="url(#mask0)">
<path id="Fill 1" fill-rule="evenodd" clip-rule="evenodd" d="M70.5548 35.686C64.9258 35.686 53.6228 35.466 53.4308 35.457C42.5858 34.967 35.8258 23.121 35.9088 12.265C35.9388 8.13803 35.8058 2.97403 35.7188 1.15303C35.6888 0.535032 35.1828 0.649032 34.9428 0.716032V14.644C34.9428 18.34 34.0758 22.023 32.1848 25.199C30.4088 28.179 27.9778 30.519 25.0108 32.337C21.4348 34.527 17.2618 35.541 13.0698 35.541H-0.000244141C0.00275586 35.844 0.00475586 36.146 0.00775586 36.448H14.0618C17.9578 36.448 21.8438 37.364 25.1778 39.381C28.0058 41.093 30.2838 43.352 31.9958 46.175C33.9868 49.458 34.8858 53.288 34.8858 57.127V71.232C35.2778 71.228 35.6698 71.225 36.0628 71.222V57.804C36.0628 52.825 37.5758 47.895 40.6888 44.007C42.2178 42.098 44.0368 40.489 46.1708 39.208C49.4308 37.251 53.2248 36.372 57.0268 36.372H70.5618C70.5598 36.144 70.5568 35.915 70.5548 35.686Z" fill="#835AEC"/>
</g>
</g>
</svg>
