<svg width="176" height="179" viewBox="0 0 176 179" fill="none" xmlns="http://www.w3.org/2000/svg">
<g id="Group 9">
<path id="Fill 1" fill-rule="evenodd" clip-rule="evenodd" d="M165.08 113.194C160.38 146.772 122.975 169.189 81.5338 163.264C40.0919 157.339 10.3059 125.316 15.0053 91.7379C19.7048 58.1603 57.1098 35.7435 98.5511 41.6682C139.993 47.594 169.778 79.6169 165.08 113.194Z" fill="#FF5B33"/>
<path id="Stroke 3" fill-rule="evenodd" clip-rule="evenodd" d="M165.08 113.194C160.38 146.772 122.975 169.189 81.5338 163.264C40.0919 157.339 10.3059 125.316 15.0053 91.7379C19.7048 58.1603 57.1098 35.7435 98.5511 41.6682C139.993 47.594 169.779 79.6169 165.08 113.194Z" stroke="black"/>
<path id="Stroke 5" d="M52.6245 75.9986C52.6245 75.9986 89.8482 54.8436 128.977 82.8665" stroke="black"/>
<path id="Stroke 7" fill-rule="evenodd" clip-rule="evenodd" d="M119.28 5.37849L86.0373 68.4781C86.0373 68.4781 99.4386 68.3661 113.803 74.3779L146.026 11.3369L119.28 5.37849Z" stroke="black"/>
</g>
</svg>
