<svg width="122" height="144" viewBox="0 0 122 144" fill="none" xmlns="http://www.w3.org/2000/svg">
<path fill-rule="evenodd" clip-rule="evenodd" d="M121.555 80.0242C115.926 80.0242 104.623 79.8042 104.431 79.7952C93.5858 79.3052 86.8258 67.4592 86.9088 56.6032C86.9388 52.4762 86.8058 47.3122 86.7188 45.4912C86.6888 44.8732 86.1828 44.9872 85.9428 45.0542V58.9822C85.9428 62.6782 85.0758 66.3612 83.1848 69.5372C81.4088 72.5172 78.9778 74.8572 76.0108 76.6752C72.4348 78.8652 68.2618 79.8792 64.0698 79.8792H50.9998C51.0028 80.1822 51.0048 80.4842 51.0078 80.7862H65.0618C68.9578 80.7862 72.8438 81.7022 76.1778 83.7192C79.0058 85.4312 81.2838 87.6902 82.9958 90.5132C84.9868 93.7962 85.8858 97.6262 85.8858 101.465V115.57C86.2778 115.566 86.6698 115.563 87.0628 115.56V102.142C87.0628 97.1632 88.5758 92.2332 91.6888 88.3452C93.2178 86.4362 95.0368 84.8272 97.1708 83.5462C100.431 81.5892 104.225 80.7102 108.027 80.7102H121.562C121.56 80.4822 121.557 80.2532 121.555 80.0242Z" fill="#4074FF"/>
<mask id="mask0" mask-type="alpha" maskUnits="userSpaceOnUse" x="15" y="-1" width="71" height="72">
<path fill-rule="evenodd" clip-rule="evenodd" d="M15 -0.00012207H85.5617V70.5698H15V-0.00012207Z" fill="white"/>
</mask>
<g mask="url(#mask0)">
<path fill-rule="evenodd" clip-rule="evenodd" d="M85.5547 35.0242C79.9257 35.0242 68.6227 34.8042 68.4307 34.7952C57.5857 34.3052 50.8257 22.4592 50.9087 11.6032C50.9387 7.47617 50.8057 2.31217 50.7187 0.491167C50.6887 -0.126833 50.1827 -0.0128334 49.9427 0.0541666V13.9822C49.9427 17.6782 49.0757 21.3612 47.1847 24.5372C45.4087 27.5172 42.9777 29.8572 40.0107 31.6752C36.4347 33.8652 32.2617 34.8792 28.0697 34.8792H14.9997C15.0027 35.1822 15.0047 35.4842 15.0077 35.7862H29.0617C32.9577 35.7862 36.8437 36.7022 40.1777 38.7192C43.0057 40.4312 45.2837 42.6902 46.9957 45.5132C48.9867 48.7962 49.8857 52.6262 49.8857 56.4652V70.5702C50.2777 70.5662 50.6697 70.5632 51.0627 70.5602V57.1422C51.0627 52.1632 52.5757 47.2332 55.6887 43.3452C57.2177 41.4362 59.0367 39.8272 61.1707 38.5462C64.4307 36.5892 68.2247 35.7102 72.0267 35.7102H85.5617C85.5597 35.4822 85.5567 35.2532 85.5547 35.0242Z" fill="#4074FF"/>
</g>
<mask id="mask1" mask-type="alpha" maskUnits="userSpaceOnUse" x="0" y="72" width="71" height="72">
<path fill-rule="evenodd" clip-rule="evenodd" d="M0 72.9999H70.5617V143.57H0V72.9999Z" fill="white"/>
</mask>
<g mask="url(#mask1)">
<path fill-rule="evenodd" clip-rule="evenodd" d="M70.5547 108.024C64.9257 108.024 53.6227 107.804 53.4307 107.795C42.5857 107.305 35.8257 95.4592 35.9087 84.6032C35.9387 80.4762 35.8057 75.3122 35.7187 73.4912C35.6887 72.8732 35.1827 72.9872 34.9427 73.0542V86.9822C34.9427 90.6782 34.0757 94.3612 32.1847 97.5372C30.4087 100.517 27.9777 102.857 25.0107 104.675C21.4347 106.865 17.2617 107.879 13.0697 107.879H-0.000299454C0.00270055 108.182 0.00470055 108.484 0.00770055 108.786H14.0617C17.9577 108.786 21.8437 109.702 25.1777 111.719C28.0057 113.431 30.2837 115.69 31.9957 118.513C33.9867 121.796 34.8857 125.626 34.8857 129.465V143.57C35.2777 143.566 35.6697 143.563 36.0627 143.56V130.142C36.0627 125.163 37.5757 120.233 40.6887 116.345C42.2177 114.436 44.0367 112.827 46.1707 111.546C49.4307 109.589 53.2247 108.71 57.0267 108.71H70.5617C70.5597 108.482 70.5567 108.253 70.5547 108.024Z" fill="#4074FF"/>
</g>
</svg>
