<svg width="279" height="392" viewBox="0 0 279 392" fill="none" xmlns="http://www.w3.org/2000/svg">
<g id="Group 6">
<g id="Group 3">
<path id="Fill 1" fill-rule="evenodd" clip-rule="evenodd" d="M100.728 45.4341C141.303 10.9881 222.677 50.497 282.491 133.679C342.305 216.861 357.903 312.214 317.328 346.66C276.754 381.106 195.374 341.598 135.563 258.419C75.7518 175.233 60.1542 79.8801 100.728 45.4341Z" fill="#212120"/>
</g>
<path id="Fill 4" fill-rule="evenodd" clip-rule="evenodd" d="M202.308 148.829L225.05 191.93L271.033 222.258L252.785 228.056L304.791 282.333L256.24 247.432L283.81 293.865L233.4 238.709L220.383 250.099L197.639 206.996L151.66 176.667L169.908 170.869L117.903 116.593L166.449 151.493L138.881 105.062L189.293 160.216L202.308 148.829Z" fill="#FF5B33"/>
</g>
</svg>
