<svg width="354" height="212" viewBox="0 0 354 212" fill="none" xmlns="http://www.w3.org/2000/svg">
<mask id="mask0" mask-type="alpha" maskUnits="userSpaceOnUse" x="0" y="0" width="354" height="212">
<path fill-rule="evenodd" clip-rule="evenodd" d="M0 0.0938721H353.936V211.923H0V0.0938721Z" fill="white"/>
</mask>
<g mask="url(#mask0)">
<path fill-rule="evenodd" clip-rule="evenodd" d="M353.936 199.347C353.936 206.264 348.264 211.923 341.329 211.923H12.6069C5.67237 211.923 0 206.264 0 199.347V12.6693C0 5.75276 5.67237 0.0938721 12.6069 0.0938721H341.329C348.264 0.0938721 353.936 5.75276 353.936 12.6693V199.347Z" fill="#835AEC" stroke="black"/>
</g>
<path fill-rule="evenodd" clip-rule="evenodd" d="M271.279 158.067H81.2614L65.0962 205.181L79.5896 154.971H272.942L282.084 186.349L271.279 158.067Z" fill="#212120"/>
<path fill-rule="evenodd" clip-rule="evenodd" d="M8.81254 159.31L9.34804 142.886L9.54731 126.458L9.91962 93.6016L9.54731 60.7461L9.35378 44.3221L8.81254 27.8947H8.67969V159.31H8.81254Z" fill="#212120"/>
<path fill-rule="evenodd" clip-rule="evenodd" d="M344.833 159.31L345.369 142.886L345.568 126.458L345.94 93.6016L345.568 60.7461L345.375 44.3221L344.833 27.8947H344.7V159.31H344.833Z" fill="#212120"/>
<path fill-rule="evenodd" clip-rule="evenodd" d="M12.6454 8.67834C13.48 9.16303 14.0676 10.0062 14.0676 11.0078C14.0676 12.5357 12.7755 13.7715 11.1875 13.7715C10.4564 13.7715 9.80861 13.4916 9.29932 13.0573C9.817 14.1307 10.9398 14.8772 12.2494 14.8772C14.0417 14.8772 15.499 13.4788 15.499 11.7596C15.499 10.1686 14.2509 8.87034 12.6454 8.67834Z" fill="white"/>
<path fill-rule="evenodd" clip-rule="evenodd" d="M17.3593 8.14086C16.1745 6.238 14.0809 4.95905 11.6726 4.95905C7.96262 4.95905 4.95996 7.96429 4.95996 11.6724C4.95996 14.0793 6.23474 16.1678 8.13929 17.3567C7.28435 16.478 5.1685 12.1806 8.19956 8.80008C11.5777 5.03245 16.3381 7.24968 17.3593 8.14086Z" fill="white"/>
<path fill-rule="evenodd" clip-rule="evenodd" d="M12.6454 197.743C13.48 198.227 14.0676 199.07 14.0676 200.073C14.0676 201.6 12.7755 202.835 11.1875 202.835C10.4564 202.835 9.80861 202.556 9.29932 202.121C9.817 203.194 10.9398 203.942 12.2494 203.942C14.0417 203.942 15.499 202.543 15.499 200.824C15.499 199.233 14.2509 197.935 12.6454 197.743Z" fill="white"/>
<path fill-rule="evenodd" clip-rule="evenodd" d="M17.3593 197.206C16.1745 195.302 14.0809 194.023 11.6726 194.023C7.96262 194.023 4.95996 197.029 4.95996 200.737C4.95996 203.144 6.23474 205.233 8.13929 206.421C7.28435 205.542 5.1685 201.245 8.19956 197.864C11.5777 194.097 16.3381 196.315 17.3593 197.206Z" fill="white"/>
<path fill-rule="evenodd" clip-rule="evenodd" d="M342.467 8.67834C343.302 9.16236 343.889 10.0062 343.889 11.0078C343.889 12.5357 342.597 13.7715 341.009 13.7715C340.278 13.7715 339.629 13.4916 339.121 13.0573C339.639 14.13 340.761 14.8772 342.071 14.8772C343.863 14.8772 345.32 13.4788 345.32 11.759C345.32 10.1686 344.072 8.87034 342.467 8.67834Z" fill="white"/>
<path fill-rule="evenodd" clip-rule="evenodd" d="M347.8 8.14155C346.616 6.2387 344.522 4.95905 342.114 4.95905C338.404 4.95905 335.401 7.96498 335.401 11.6731C335.401 14.08 336.676 16.1685 338.58 17.3567C337.728 16.478 335.612 12.1855 338.641 8.80492C342.018 5.03729 346.779 7.25452 347.8 8.14155Z" fill="white"/>
<path fill-rule="evenodd" clip-rule="evenodd" d="M349.04 200.532C349.04 204.466 345.853 207.661 341.91 207.661C337.972 207.661 334.781 204.466 334.781 200.532C334.781 196.594 337.972 193.404 341.91 193.404C345.853 193.404 349.04 196.594 349.04 200.532Z" fill="#212120"/>
<path fill-rule="evenodd" clip-rule="evenodd" d="M342.467 197.743C343.302 198.227 343.889 199.07 343.889 200.073C343.889 201.6 342.597 202.835 341.009 202.835C340.278 202.835 339.629 202.556 339.121 202.121C339.639 203.194 340.761 203.942 342.071 203.942C343.863 203.942 345.32 202.543 345.32 200.824C345.32 199.233 344.072 197.935 342.467 197.743Z" fill="white"/>
<path fill-rule="evenodd" clip-rule="evenodd" d="M347.8 197.206C346.616 195.302 344.522 194.023 342.114 194.023C338.404 194.023 335.401 197.029 335.401 200.737C335.401 203.144 336.676 205.233 338.58 206.421C337.728 205.542 335.612 201.245 338.641 197.864C342.018 194.097 346.779 196.315 347.8 197.206Z" fill="white"/>
<path fill-rule="evenodd" clip-rule="evenodd" d="M322.041 19.8362H31.9453L17.979 33.8107V150.012H336.021V33.8149L322.041 19.8362Z" fill="#E2FEFF"/>
<path fill-rule="evenodd" clip-rule="evenodd" d="M17.979 50.8304V66.451V82.0716V97.6937V113.315V128.936H336.021V113.315V97.6937V82.0716V66.451V50.8342L17.979 50.8304Z" fill="#212120"/>
<path fill-rule="evenodd" clip-rule="evenodd" d="M275.884 92.0504C275.884 103.523 266.45 112.819 254.804 112.819C243.162 112.819 233.727 103.523 233.727 92.0504C233.727 80.5781 243.162 71.2866 254.804 71.2866C266.45 71.2866 275.884 80.5781 275.884 92.0504Z" fill="white"/>
<path fill-rule="evenodd" clip-rule="evenodd" d="M128.333 88.3311C128.333 99.8041 118.898 109.099 107.252 109.099C95.6106 109.099 86.175 99.8041 86.175 88.3311C86.175 76.8588 95.6106 67.5673 107.252 67.5673C118.898 67.5673 128.333 76.8588 128.333 88.3311Z" fill="white"/>
<path fill-rule="evenodd" clip-rule="evenodd" d="M270.606 98.4559C270.033 99.8622 269.238 101.13 268.331 102.31L272.047 104.47C268.638 109.154 263.38 112.39 257.342 113.04V108.68C256.604 108.777 255.877 108.907 255.113 108.907C254.354 108.907 253.627 108.777 252.888 108.68V113.04C246.851 112.39 241.587 109.154 238.179 104.47L241.9 102.31C240.987 101.13 240.199 99.8622 239.619 98.4559L235.939 100.6C234.781 97.9819 234.125 95.0956 234.125 92.0502C234.125 89.0097 234.781 86.1184 235.939 83.5055L239.619 85.6493C240.199 84.243 240.987 82.9743 241.9 81.7951L238.179 79.6355C241.587 74.9459 246.851 71.714 252.888 71.0652V75.4249C253.627 75.3271 254.354 75.1987 255.113 75.1987C255.877 75.1987 256.604 75.3271 257.342 75.4249V71.0652C263.38 71.714 268.638 74.9459 272.047 79.6355L268.331 81.7951C269.238 82.9743 270.033 84.243 270.606 85.6493L274.292 83.5055C275.45 86.1184 276.106 89.0097 276.106 92.0502C276.106 95.0956 275.45 97.9819 274.292 100.6L270.606 98.4559ZM255.113 67.5673C241.612 67.5673 230.627 78.5505 230.627 92.0502C230.627 105.555 241.612 116.538 255.113 116.538C268.619 116.538 279.604 105.555 279.604 92.0502C279.604 78.5505 268.619 67.5673 255.113 67.5673Z" fill="#4074FF"/>
<path fill-rule="evenodd" clip-rule="evenodd" d="M122.435 94.7366C121.861 96.1429 121.066 97.4108 120.159 98.5909L123.875 100.75C120.466 105.434 115.208 108.67 109.17 109.321V104.961C108.433 105.058 107.705 105.187 106.941 105.187C106.183 105.187 105.455 105.058 104.717 104.961V109.321C98.6796 108.67 93.4157 105.434 90.0069 100.75L93.7289 98.5909C92.8157 97.4108 92.027 96.1429 91.4476 94.7366L87.7677 96.8805C86.6089 94.2626 85.9537 91.3763 85.9537 88.3309C85.9537 85.2904 86.6089 82.3991 87.7677 79.7862L91.4476 81.93C92.027 80.5237 92.8157 79.255 93.7289 78.0758L90.0069 75.9162C93.4157 71.2266 98.6796 67.9947 104.717 67.3459V71.7056C105.455 71.6078 106.183 71.4794 106.941 71.4794C107.705 71.4794 108.433 71.6078 109.17 71.7056V67.3459C115.208 67.9947 120.466 71.2266 123.875 75.9162L120.159 78.0758C121.066 79.255 121.861 80.5237 122.435 81.93L126.12 79.7862C127.278 82.3991 127.934 85.2904 127.934 88.3309C127.934 91.3763 127.278 94.2626 126.12 96.8805L122.435 94.7366ZM106.941 63.848C93.4406 63.848 82.4553 74.8312 82.4553 88.3309C82.4553 101.836 93.4406 112.819 106.941 112.819C120.447 112.819 131.433 101.836 131.433 88.3309C131.433 74.8312 120.447 63.848 106.941 63.848Z" fill="#4074FF"/>
<path fill-rule="evenodd" clip-rule="evenodd" d="M29.7583 39.0526H324.242V37.193H29.7583V39.0526Z" fill="#4074FF"/>
<path fill-rule="evenodd" clip-rule="evenodd" d="M24.7988 137.614H319.282V135.754H24.7988V137.614Z" fill="#4074FF"/>
</svg>
