<svg width="55" height="55" viewBox="0 0 55 55" fill="none" xmlns="http://www.w3.org/2000/svg">
<mask id="mask0" mask-type="alpha" maskUnits="userSpaceOnUse" x="0" y="0" width="55" height="55">
<path fill-rule="evenodd" clip-rule="evenodd" d="M0 0H55V55H0V0Z" fill="white"/>
</mask>
<g mask="url(#mask0)">
<path fill-rule="evenodd" clip-rule="evenodd" d="M54.9945 27.2967C50.607 27.2967 41.7968 27.1252 41.6471 27.1182C33.1939 26.7363 27.9248 17.504 27.9895 9.04319C28.0129 5.82676 27.9092 1.80212 27.8414 0.382893C27.818 -0.0987544 27.4236 -0.0099068 27.2365 0.0423106V10.8973C27.2365 13.7778 26.5608 16.6482 25.0868 19.1235C23.7025 21.446 21.8076 23.2697 19.495 24.6866C16.7076 26.3934 13.455 27.1837 10.1875 27.1837H0C0.00233837 27.4198 0.00389728 27.6552 0.00623565 27.8906H10.9607C13.9975 27.8906 17.0264 28.6045 19.6252 30.1765C21.8295 31.5107 23.6051 33.2713 24.9395 35.4715C26.4914 38.0301 27.1921 41.0151 27.1921 44.0071V55C27.4977 54.9969 27.8032 54.9945 28.1095 54.9922V44.5347C28.1095 40.6542 29.2889 36.812 31.7153 33.7818C32.9071 32.294 34.3249 31.04 35.9883 30.0416C38.5293 28.5164 41.4866 27.8313 44.4501 27.8313H55C54.9984 27.6536 54.9961 27.4752 54.9945 27.2967Z" fill="#FF6E35"/>
</g>
</svg>
