<svg width="338" height="217" viewBox="0 0 338 217" fill="none" xmlns="http://www.w3.org/2000/svg">
<path fill-rule="evenodd" clip-rule="evenodd" d="M67.8212 94.3885L1 160.252L84.8005 183.922L152.644 325L167.178 160.846L234 94.9823L150.199 71.3124L93.4889 1L67.8212 94.3885Z" fill="#212120"/>
<path fill-rule="evenodd" clip-rule="evenodd" d="M93.4885 1L150.2 71.3124L234 94.9823L167.178 160.846L152.643 325L84.8002 183.922L1 160.252L67.8219 94.3894L93.4885 1Z" stroke="#081A2D" stroke-width="0.918"/>
<path fill-rule="evenodd" clip-rule="evenodd" d="M215.236 112.363C213.392 116.529 216.207 125.244 220.911 126.24C226.199 127.358 231.665 126.541 234.182 121.005C236.783 115.289 234.821 109.903 229.237 107.304C224.019 104.876 218.294 104.999 215.236 112.363ZM246.661 196.9C245.134 198.583 243.402 200.081 241.487 201.336C232.2 207.424 219.235 207.58 209.405 201.954C199.574 196.328 193.243 185.278 193.232 174.212C193.224 166.815 195.789 159.723 198.467 152.864C198.894 151.77 199.244 150.335 198.32 149.562C197.6 148.961 196.527 149.158 195.639 149.431C186.247 152.34 178.77 160.004 169.025 161.569C162.179 162.669 154.981 160.496 149.209 156.562C140.729 150.78 135.045 140.988 134.9 130.952C134.756 120.917 140.388 110.986 149.368 106.37C155.614 103.159 162.95 102.546 170.065 102.69C172.176 102.732 174.581 102.721 175.962 101.184C179.224 97.5545 171.62 95.2025 169.76 93.9454C165.847 91.3017 162.746 87.0581 160.71 82.9186C156.536 74.4285 156.276 64.2975 160.167 55.8262C166.008 43.1084 180.887 36.1508 194.976 39.7606C201.824 41.5138 207.38 45.5044 211.693 50.9833C214.817 54.9536 216.226 60.049 219.351 64.0819C220.299 65.3052 221.763 66.3501 223.297 66.1442C226.193 65.7559 228.292 60.0349 229.911 57.8694C232.469 54.4463 235.256 51.1196 238.533 48.3337C245.051 42.7921 253.05 39.974 261.808 41.3356C273.446 43.1448 283.67 52.368 286.503 63.6136C290.202 78.2889 280.799 91.3245 269.516 99.6074C268.736 100.18 260.651 106.346 262.49 106.329C268.244 106.275 273.119 106.021 277.982 106.239C283.426 106.485 288.063 109.396 292.723 111.828C302.827 117.099 308.611 131.323 305.821 143.252C303.282 154.106 292.947 162.203 281.54 162.993C269.545 163.823 261.41 159.123 252.165 152.236C243.246 145.592 252.821 169.395 253.494 172.556C255.329 181.192 252.536 190.418 246.661 196.9Z" fill="#FF5B33"/>
<path d="M220.911 126.24L220.807 126.729L220.808 126.729L220.911 126.24ZM234.182 121.005L233.727 120.798L233.727 120.798L234.182 121.005ZM229.237 107.304L229.026 107.757L229.026 107.757L229.237 107.304ZM241.487 201.336L241.213 200.918L241.213 200.918L241.487 201.336ZM209.405 201.954L209.654 201.52L209.654 201.52L209.405 201.954ZM193.232 174.212L193.732 174.211L193.732 174.211L193.232 174.212ZM198.467 152.864L198.933 153.045L198.933 153.045L198.467 152.864ZM198.32 149.562L198.641 149.178L198.64 149.178L198.32 149.562ZM195.639 149.431L195.492 148.953L195.491 148.953L195.639 149.431ZM169.025 161.569L169.104 162.063L169.104 162.063L169.025 161.569ZM149.209 156.562L148.927 156.975L148.927 156.975L149.209 156.562ZM134.9 130.952L134.4 130.959L134.4 130.959L134.9 130.952ZM149.368 106.37L149.596 106.815L149.596 106.815L149.368 106.37ZM170.065 102.69L170.055 103.19L170.055 103.19L170.065 102.69ZM175.962 101.184L175.59 100.849L175.59 100.849L175.962 101.184ZM169.76 93.9454L170.04 93.5311L170.04 93.5311L169.76 93.9454ZM160.71 82.9186L160.262 83.1392L160.262 83.1392L160.71 82.9186ZM160.167 55.8262L160.622 56.0348L160.622 56.0348L160.167 55.8262ZM194.976 39.7606L194.852 40.2449L194.852 40.2449L194.976 39.7606ZM211.693 50.9833L212.086 50.6741L212.086 50.6741L211.693 50.9833ZM219.351 64.0819L218.955 64.3881L218.955 64.3881L219.351 64.0819ZM223.297 66.1442L223.231 65.6487L223.231 65.6487L223.297 66.1442ZM229.911 57.8694L230.311 58.1687L230.312 58.1686L229.911 57.8694ZM238.533 48.3337L238.857 48.7147L238.857 48.7146L238.533 48.3337ZM261.808 41.3356L261.731 41.8297L261.731 41.8297L261.808 41.3356ZM286.503 63.6136L286.018 63.7357L286.018 63.7358L286.503 63.6136ZM269.516 99.6074L269.812 100.011L269.812 100.01L269.516 99.6074ZM262.49 106.329L262.494 106.829L262.494 106.829L262.49 106.329ZM277.982 106.239L278.004 105.74L278.004 105.74L277.982 106.239ZM292.723 111.828L292.492 112.271L292.492 112.271L292.723 111.828ZM305.821 143.252L306.308 143.365L306.308 143.365L305.821 143.252ZM281.54 162.993L281.505 162.494L281.505 162.494L281.54 162.993ZM252.165 152.236L252.463 151.835L252.463 151.835L252.165 152.236ZM253.494 172.556L253.983 172.452L253.983 172.451L253.494 172.556ZM214.779 112.161C213.782 114.413 214.066 117.781 215.15 120.666C216.229 123.537 218.197 126.176 220.807 126.729L221.015 125.751C218.92 125.307 217.129 123.091 216.086 120.314C215.047 117.551 214.846 114.479 215.693 112.565L214.779 112.161ZM220.808 126.729C223.502 127.299 226.286 127.386 228.739 126.593C231.212 125.795 233.319 124.111 234.637 121.212L233.727 120.798C232.528 123.435 230.644 124.927 228.432 125.642C226.201 126.362 223.608 126.299 221.014 125.751L220.808 126.729ZM234.637 121.212C235.982 118.256 236.164 115.344 235.249 112.815C234.334 110.286 232.342 108.197 229.447 106.851L229.026 107.757C231.716 109.009 233.497 110.913 234.309 113.156C235.121 115.399 234.983 118.038 233.727 120.798L234.637 121.212ZM229.448 106.851C226.784 105.611 223.922 104.989 221.299 105.678C218.649 106.374 216.348 108.38 214.774 112.171L215.698 112.555C217.182 108.981 219.273 107.244 221.553 106.645C223.862 106.038 226.471 106.569 229.026 107.757L229.448 106.851ZM246.29 196.564C244.791 198.217 243.091 199.687 241.213 200.918L241.761 201.754C243.713 200.475 245.478 198.949 247.031 197.236L246.29 196.564ZM241.213 200.918C232.091 206.897 219.329 207.058 209.654 201.52L209.157 202.388C219.141 208.103 232.308 207.951 241.761 201.754L241.213 200.918ZM209.654 201.52C199.979 195.983 193.743 185.099 193.732 174.211L192.732 174.212C192.743 185.457 199.17 196.673 209.157 202.388L209.654 201.52ZM193.732 174.211C193.724 166.92 196.253 159.91 198.933 153.045L198.001 152.682C195.325 159.536 192.724 166.709 192.732 174.212L193.732 174.211ZM198.933 153.045C199.153 152.482 199.371 151.789 199.399 151.114C199.429 150.432 199.264 149.7 198.641 149.178L197.999 149.945C198.299 150.197 198.422 150.569 198.4 151.071C198.379 151.581 198.208 152.152 198.001 152.682L198.933 153.045ZM198.64 149.178C198.158 148.775 197.577 148.659 197.034 148.669C196.495 148.678 195.952 148.812 195.492 148.953L195.787 149.909C196.215 149.777 196.652 149.675 197.051 149.668C197.446 149.661 197.762 149.747 197.999 149.946L198.64 149.178ZM195.491 148.953C190.727 150.429 186.45 153.11 182.213 155.571C177.952 158.047 173.718 160.309 168.946 161.076L169.104 162.063C174.077 161.264 178.454 158.912 182.715 156.436C187.001 153.947 191.159 151.342 195.787 149.909L195.491 148.953ZM168.946 161.076C162.253 162.15 155.183 160.028 149.49 156.148L148.927 156.975C154.78 160.965 162.105 163.187 169.104 162.063L168.946 161.076ZM149.49 156.148C141.132 150.45 135.542 140.802 135.399 130.945L134.4 130.959C134.548 141.173 140.326 151.111 148.927 156.975L149.49 156.148ZM135.399 130.945C135.259 121.089 140.795 111.339 149.596 106.815L149.139 105.926C139.982 110.633 134.254 120.744 134.4 130.959L135.399 130.945ZM149.596 106.815C155.729 103.662 162.963 103.047 170.055 103.19L170.075 102.19C162.937 102.046 155.498 102.656 149.139 105.926L149.596 106.815ZM170.055 103.19C171.107 103.211 172.283 103.221 173.377 103.021C174.475 102.82 175.542 102.399 176.334 101.518L175.59 100.849C175 101.506 174.174 101.859 173.197 102.037C172.215 102.217 171.134 102.211 170.075 102.19L170.055 103.19ZM176.334 101.518C176.782 101.019 177.069 100.514 177.194 100C177.32 99.481 177.273 98.9839 177.098 98.5219C176.759 97.624 175.95 96.8777 175.067 96.2644C174.17 95.6415 173.117 95.1021 172.193 94.6477C171.241 94.1795 170.467 93.82 170.04 93.5311L169.48 94.3596C169.983 94.6993 170.857 95.1052 171.752 95.5451C172.674 95.9986 173.667 96.5097 174.496 97.0857C175.339 97.6711 175.935 98.2719 176.163 98.8749C176.271 99.1634 176.297 99.4553 176.222 99.7642C176.146 100.079 175.957 100.441 175.59 100.849L176.334 101.518ZM170.04 93.5311C166.223 90.9519 163.171 86.7893 161.159 82.6979L160.262 83.1392C162.321 87.3269 165.472 91.6514 169.48 94.3596L170.04 93.5311ZM161.159 82.6979C157.048 74.3373 156.796 64.364 160.622 56.0348L159.713 55.6175C155.757 64.231 156.023 74.5198 160.262 83.1392L161.159 82.6979ZM160.622 56.0348C166.358 43.5451 180.988 36.6928 194.852 40.2449L195.1 39.2762C180.786 35.6088 165.658 42.6716 159.713 55.6175L160.622 56.0348ZM194.852 40.2449C201.579 41.9672 207.045 45.8875 211.3 51.2926L212.086 50.6741C207.715 45.1214 202.069 41.0604 195.1 39.2762L194.852 40.2449ZM211.3 51.2925C212.825 53.2308 213.937 55.4505 215.074 57.7322C216.203 59.9983 217.358 62.326 218.955 64.3881L219.746 63.7756C218.219 61.8049 217.106 59.5685 215.969 57.2862C214.839 55.0193 213.685 52.7062 212.086 50.6741L211.3 51.2925ZM218.955 64.3881C219.943 65.663 221.564 66.8813 223.364 66.6398L223.231 65.6487C221.962 65.8189 220.654 64.9474 219.746 63.7756L218.955 64.3881ZM223.364 66.6398C224.241 66.5222 225.01 66.0087 225.677 65.3468C226.347 64.6818 226.955 63.8247 227.508 62.9375C228.061 62.0491 228.573 61.1044 229.039 60.2638C229.512 59.4108 229.931 58.6781 230.311 58.1687L229.511 57.57C229.082 58.1434 228.631 58.9379 228.165 59.7788C227.691 60.632 227.195 61.5479 226.659 62.409C226.122 63.2713 225.561 64.0526 224.973 64.6372C224.381 65.2248 223.802 65.5721 223.231 65.6487L223.364 66.6398ZM230.312 58.1686C232.86 54.7584 235.621 51.4655 238.857 48.7147L238.21 47.9528C234.891 50.7736 232.078 54.1341 229.51 57.5701L230.312 58.1686ZM238.857 48.7146C245.281 43.253 253.138 40.4936 261.731 41.8297L261.884 40.8416C252.963 39.4544 244.821 42.3312 238.21 47.9528L238.857 48.7146ZM261.731 41.8297C273.175 43.6087 283.236 52.6888 286.018 63.7357L286.988 63.4915C284.105 52.0472 273.717 42.6809 261.884 40.8416L261.731 41.8297ZM286.018 63.7358C289.641 78.1114 280.446 90.9637 269.22 99.2044L269.812 100.01C281.152 91.6853 290.762 78.4664 286.988 63.4914L286.018 63.7358ZM269.22 99.2044C268.823 99.4961 266.597 101.188 264.697 102.809C263.751 103.615 262.864 104.423 262.326 105.037C262.19 105.192 262.07 105.343 261.975 105.484C261.884 105.618 261.795 105.773 261.75 105.935C261.706 106.091 261.676 106.374 261.892 106.604C262.082 106.807 262.341 106.83 262.494 106.829L262.485 105.829C262.409 105.83 262.516 105.807 262.622 105.921C262.681 105.984 262.709 106.058 262.716 106.119C262.72 106.146 262.719 106.167 262.717 106.181C262.716 106.194 262.714 106.201 262.714 106.202C262.713 106.203 262.717 106.189 262.733 106.159C262.748 106.129 262.771 106.091 262.803 106.044C262.867 105.949 262.959 105.833 263.079 105.696C263.564 105.141 264.402 104.374 265.345 103.57C267.223 101.968 269.429 100.291 269.812 100.011L269.22 99.2044ZM262.494 106.829C268.277 106.775 273.114 106.521 277.959 106.739L278.004 105.74C273.124 105.521 268.21 105.776 262.485 105.829L262.494 106.829ZM277.959 106.739C283.263 106.978 287.775 109.809 292.492 112.271L292.954 111.385C288.352 108.982 283.588 105.991 278.004 105.74L277.959 106.739ZM292.492 112.271C297.417 114.841 301.319 119.611 303.645 125.234C305.97 130.856 306.702 137.287 305.334 143.138L306.308 143.365C307.729 137.287 306.964 130.643 304.569 124.852C302.175 119.063 298.133 114.086 292.954 111.385L292.492 112.271ZM305.334 143.138C302.85 153.756 292.717 161.718 281.505 162.494L281.574 163.491C293.177 162.689 303.714 154.455 306.308 143.365L305.334 143.138ZM281.505 162.494C269.693 163.312 261.681 158.702 252.463 151.835L251.866 152.637C261.139 159.545 269.396 164.335 281.574 163.491L281.505 162.494ZM252.463 151.835C251.339 150.997 250.391 150.544 249.616 150.572C249.201 150.587 248.841 150.74 248.562 151.022C248.295 151.292 248.13 151.652 248.031 152.039C247.834 152.806 247.853 153.832 247.992 154.973C248.133 156.127 248.404 157.45 248.747 158.839C249.433 161.617 250.42 164.697 251.273 167.27C251.702 168.563 252.093 169.717 252.403 170.659C252.714 171.607 252.927 172.297 253.005 172.66L253.983 172.451C253.892 172.025 253.659 171.279 253.353 170.347C253.044 169.407 252.647 168.235 252.222 166.956C251.37 164.385 250.394 161.336 249.718 158.599C249.379 157.23 249.119 155.95 248.985 154.852C248.849 153.741 248.85 152.868 248.999 152.288C249.073 152.002 249.173 151.827 249.273 151.725C249.363 151.634 249.476 151.578 249.652 151.572C250.057 151.557 250.761 151.814 251.866 152.637L252.463 151.835ZM253.005 172.66C254.804 181.128 252.066 190.192 246.29 196.564L247.031 197.236C253.007 190.643 255.854 181.257 253.983 172.452L253.005 172.66Z" fill="black"/>
<path d="M215.236 112.363L215.754 112.592L215.759 112.58L215.236 112.363ZM220.911 126.24L220.794 126.794L220.794 126.794L220.911 126.24ZM234.182 121.005L233.666 120.77L233.666 120.771L234.182 121.005ZM229.237 107.304L228.998 107.818L228.998 107.818L229.237 107.304ZM246.661 196.9L247.08 197.281L247.081 197.281L246.661 196.9ZM241.487 201.336L241.176 200.862L241.176 200.862L241.487 201.336ZM209.405 201.954L209.687 201.463L209.687 201.463L209.405 201.954ZM193.232 174.212L193.798 174.211L193.798 174.211L193.232 174.212ZM198.467 152.864L198.995 153.07L198.995 153.07L198.467 152.864ZM198.32 149.562L198.683 149.127L198.683 149.127L198.32 149.562ZM195.639 149.431L195.473 148.89L195.472 148.89L195.639 149.431ZM169.025 161.569L169.115 162.129L169.115 162.129L169.025 161.569ZM149.209 156.562L148.889 157.03L148.89 157.03L149.209 156.562ZM134.9 130.952L134.333 130.96L134.333 130.96L134.9 130.952ZM149.368 106.37L149.627 106.874L149.627 106.874L149.368 106.37ZM170.065 102.69L170.053 103.257L170.054 103.257L170.065 102.69ZM175.962 101.184L175.54 100.805L175.54 100.805L175.962 101.184ZM169.76 93.9454L170.077 93.476L170.077 93.476L169.76 93.9454ZM160.71 82.9186L160.202 83.1685L160.202 83.1685L160.71 82.9186ZM160.167 55.8262L160.682 56.0626L160.682 56.0626L160.167 55.8262ZM194.976 39.7606L194.836 40.3093L194.836 40.3094L194.976 39.7606ZM211.693 50.9833L212.138 50.633L212.138 50.6329L211.693 50.9833ZM219.351 64.0819L218.903 64.4288L218.903 64.4289L219.351 64.0819ZM223.297 66.1442L223.222 65.5828L223.222 65.5828L223.297 66.1442ZM229.911 57.8694L230.365 58.2085L230.365 58.2084L229.911 57.8694ZM238.533 48.3337L238.9 48.7654L238.9 48.7653L238.533 48.3337ZM261.808 41.3356L261.72 41.8954L261.72 41.8954L261.808 41.3356ZM286.503 63.6136L285.954 63.752L285.954 63.7521L286.503 63.6136ZM269.516 99.6074L269.851 100.064L269.851 100.064L269.516 99.6074ZM262.49 106.329L262.495 106.895L262.495 106.895L262.49 106.329ZM277.982 106.239L278.007 105.674L278.007 105.674L277.982 106.239ZM292.723 111.828L292.461 112.33L292.461 112.33L292.723 111.828ZM305.821 143.252L306.372 143.381L306.372 143.381L305.821 143.252ZM281.54 162.993L281.501 162.427L281.501 162.427L281.54 162.993ZM252.165 152.236L252.503 151.782L252.503 151.782L252.165 152.236ZM253.494 172.556L254.048 172.438L254.048 172.438L253.494 172.556ZM214.718 112.134C213.711 114.408 214.001 117.797 215.088 120.689C216.169 123.567 218.149 126.234 220.794 126.794L221.028 125.686C218.968 125.249 217.189 123.061 216.148 120.291C215.113 117.535 214.917 114.484 215.754 112.592L214.718 112.134ZM220.794 126.794C223.495 127.365 226.291 127.454 228.76 126.657C231.249 125.853 233.372 124.156 234.698 121.239L233.666 120.771C232.476 123.39 230.606 124.87 228.411 125.579C226.196 126.294 223.615 126.232 221.028 125.686L220.794 126.794ZM234.698 121.24C236.049 118.27 236.233 115.34 235.312 112.793C234.39 110.244 232.383 108.143 229.476 106.79L228.998 107.818C231.674 109.063 233.442 110.955 234.246 113.178C235.051 115.403 234.916 118.024 233.666 120.77L234.698 121.24ZM229.476 106.79C226.805 105.547 223.926 104.919 221.283 105.613C218.607 106.316 216.293 108.34 214.713 112.146L215.759 112.58C217.237 109.021 219.314 107.302 221.57 106.709C223.858 106.108 226.451 106.632 228.998 107.818L229.476 106.79ZM246.241 196.52C244.746 198.169 243.05 199.635 241.176 200.862L241.797 201.81C243.754 200.528 245.523 198.998 247.08 197.281L246.241 196.52ZM241.176 200.862C232.077 206.827 219.342 206.989 209.687 201.463L209.124 202.446C219.128 208.172 232.323 208.021 241.797 201.81L241.176 200.862ZM209.687 201.463C200.032 195.937 193.809 185.075 193.798 174.211L192.665 174.212C192.677 185.481 199.117 196.718 209.124 202.446L209.687 201.463ZM193.798 174.211C193.791 166.934 196.314 159.934 198.995 153.07L197.939 152.658C195.263 159.511 192.657 166.695 192.665 174.212L193.798 174.211ZM198.995 153.07C199.215 152.504 199.437 151.802 199.466 151.117C199.496 150.423 199.329 149.667 198.683 149.127L197.956 149.996C198.235 150.23 198.355 150.578 198.334 151.068C198.313 151.567 198.145 152.13 197.939 152.658L198.995 153.07ZM198.683 149.127C198.184 148.711 197.586 148.592 197.033 148.602C196.484 148.612 195.934 148.747 195.473 148.89L195.806 149.972C196.232 149.841 196.663 149.742 197.052 149.735C197.438 149.728 197.735 149.812 197.957 149.997L198.683 149.127ZM195.472 148.89C190.699 150.368 186.414 153.055 182.18 155.514C177.919 157.989 173.694 160.245 168.935 161.01L169.115 162.129C174.101 161.328 178.487 158.969 182.749 156.494C187.038 154.002 191.188 151.403 195.807 149.972L195.472 148.89ZM168.935 161.01C162.263 162.081 155.209 159.966 149.528 156.094L148.89 157.03C154.754 161.027 162.095 163.256 169.115 162.129L168.935 161.01ZM149.528 156.094C141.186 150.406 135.608 140.778 135.466 130.944L134.333 130.96C134.481 141.197 140.272 151.154 148.889 157.03L149.528 156.094ZM135.466 130.944C135.325 121.112 140.849 111.386 149.627 106.874L149.109 105.866C139.927 110.586 134.187 120.721 134.333 130.96L135.466 130.944ZM149.627 106.874C155.745 103.729 162.965 103.113 170.053 103.257L170.076 102.124C162.935 101.979 155.482 102.59 149.109 105.866L149.627 106.874ZM170.054 103.257C171.105 103.277 172.288 103.288 173.389 103.086C174.495 102.884 175.578 102.458 176.383 101.562L175.54 100.805C174.964 101.446 174.154 101.795 173.185 101.972C172.211 102.15 171.136 102.145 170.076 102.124L170.054 103.257ZM176.383 101.562C176.836 101.058 177.13 100.543 177.259 100.016C177.388 99.4828 177.339 98.972 177.16 98.4984C176.814 97.5809 175.99 96.825 175.105 96.2098C174.204 95.5838 173.147 95.0425 172.222 94.588C171.266 94.118 170.5 93.7615 170.077 93.476L169.443 94.4147C169.95 94.7578 170.832 95.1668 171.723 95.6047C172.645 96.0582 173.634 96.5674 174.458 97.1403C175.298 97.7239 175.88 98.3149 176.1 98.8984C176.205 99.1754 176.229 99.4535 176.158 99.7485C176.084 100.05 175.902 100.402 175.54 100.805L176.383 101.562ZM170.077 93.476C166.273 90.9054 163.228 86.7536 161.219 82.6686L160.202 83.1685C162.265 87.3627 165.422 91.6979 169.443 94.4148L170.077 93.476ZM161.219 82.6686C157.116 74.3252 156.865 64.3728 160.682 56.0626L159.653 55.5897C155.688 64.2222 155.955 74.5319 160.202 83.1685L161.219 82.6686ZM160.682 56.0626C166.404 43.6032 181.001 36.7648 194.836 40.3093L195.117 39.2118C180.773 35.5367 165.612 42.6135 159.653 55.5897L160.682 56.0626ZM194.836 40.3094C201.546 42.0275 207.001 45.9384 211.248 51.3337L212.138 50.6329C207.76 45.0704 202.101 41.0001 195.117 39.2118L194.836 40.3094ZM211.248 51.3337C212.768 53.2657 213.877 55.4792 215.015 57.7618C216.143 60.0269 217.3 62.3606 218.903 64.4288L219.798 63.7349C218.276 61.7703 217.166 59.5399 216.029 57.2565C214.899 54.9906 213.742 52.6713 212.138 50.633L211.248 51.3337ZM218.903 64.4289C219.896 65.7106 221.538 66.952 223.373 66.7057L223.222 65.5828C221.989 65.7483 220.701 64.8998 219.798 63.7348L218.903 64.4289ZM223.373 66.7057C224.27 66.5854 225.052 66.0609 225.724 65.394C226.399 64.7237 227.011 63.8615 227.564 62.9726C228.118 62.0825 228.632 61.1359 229.097 60.296C229.571 59.4422 229.987 58.7136 230.365 58.2085L229.457 57.5302C229.025 58.1078 228.572 58.9064 228.106 59.7465C227.633 60.6006 227.137 61.5145 226.602 62.3739C226.066 63.2345 225.509 64.0108 224.926 64.59C224.339 65.1727 223.773 65.5089 223.222 65.5828L223.373 66.7057ZM230.365 58.2084C232.912 54.7999 235.67 51.5115 238.9 48.7654L238.167 47.9021C234.842 50.7276 232.026 54.0926 229.457 57.5303L230.365 58.2084ZM238.9 48.7653C245.311 43.3144 253.149 40.5627 261.72 41.8954L261.895 40.7759C252.952 39.3853 244.79 42.2699 238.166 47.9021L238.9 48.7653ZM261.72 41.8954C273.139 43.6704 283.178 52.7314 285.954 63.752L287.052 63.4752C284.163 52.0046 273.753 42.6192 261.895 40.7759L261.72 41.8954ZM285.954 63.7521C289.567 78.0878 280.399 90.9157 269.181 99.1508L269.851 100.064C281.199 91.7333 290.837 78.49 287.052 63.4752L285.954 63.7521ZM269.181 99.1508C268.783 99.4432 266.555 101.136 264.653 102.758C263.708 103.565 262.817 104.375 262.276 104.993C262.139 105.15 262.017 105.302 261.919 105.446C261.827 105.583 261.734 105.745 261.686 105.917C261.64 106.083 261.605 106.395 261.844 106.65C262.053 106.873 262.336 106.897 262.495 106.895L262.484 105.762C262.413 105.763 262.544 105.741 262.67 105.875C262.741 105.95 262.773 106.038 262.782 106.11C262.79 106.175 262.779 106.215 262.778 106.22C262.777 106.223 262.791 106.181 262.858 106.081C262.92 105.99 263.01 105.875 263.129 105.739C263.611 105.189 264.445 104.425 265.389 103.62C267.265 102.02 269.47 100.344 269.851 100.064L269.181 99.1508ZM262.495 106.895C268.282 106.842 273.113 106.588 277.957 106.805L278.007 105.674C273.125 105.454 268.206 105.709 262.484 105.762L262.495 106.895ZM277.956 106.805C283.241 107.043 287.737 109.864 292.461 112.33L292.985 111.326C288.39 108.927 283.61 105.926 278.007 105.674L277.956 106.805ZM292.461 112.33C297.37 114.891 301.262 119.648 303.583 125.26C305.904 130.87 306.634 137.287 305.269 143.123L306.372 143.381C307.797 137.287 307.03 130.628 304.63 124.827C302.231 119.027 298.18 114.036 292.985 111.326L292.461 112.33ZM305.269 143.122C302.793 153.71 292.686 161.654 281.501 162.427L281.579 163.558C293.207 162.753 303.771 154.502 306.372 143.381L305.269 143.122ZM281.501 162.427C269.713 163.244 261.717 158.646 252.503 151.782L251.826 152.69C261.103 159.601 269.377 164.403 281.579 163.558L281.501 162.427ZM252.503 151.782C251.377 150.943 250.413 150.477 249.613 150.506C249.182 150.521 248.807 150.68 248.515 150.975C248.236 151.256 248.068 151.628 247.966 152.023C247.766 152.802 247.787 153.838 247.926 154.981C248.067 156.138 248.339 157.465 248.682 158.855C249.37 161.636 250.357 164.718 251.21 167.291C251.639 168.585 252.03 169.738 252.339 170.679C252.651 171.629 252.863 172.315 252.94 172.674L254.048 172.438C253.956 172.007 253.722 171.257 253.416 170.326C253.107 169.386 252.71 168.214 252.286 166.935C251.433 164.364 250.458 161.318 249.782 158.583C249.444 157.216 249.184 155.938 249.051 154.844C248.915 153.735 248.918 152.872 249.064 152.305C249.135 152.026 249.231 151.862 249.32 151.772C249.397 151.694 249.494 151.644 249.654 151.638C250.035 151.624 250.723 151.868 251.826 152.69L252.503 151.782ZM252.94 172.673C254.734 181.119 252.004 190.162 246.241 196.52L247.081 197.281C253.069 190.673 255.923 181.265 254.048 172.438L252.94 172.673Z" fill="#081A2D"/>
<path fill-rule="evenodd" clip-rule="evenodd" d="M270.982 137.533C270.982 137.533 259.427 131.101 260.865 124.264C260.865 124.264 253.347 127.088 244.785 124.721C244.785 124.721 253.268 131.741 252.762 138.379C252.762 138.379 260.148 133.014 270.982 137.533Z" fill="white"/>
<path fill-rule="evenodd" clip-rule="evenodd" d="M269.713 137.552C269.713 137.552 258.492 131.089 259.967 124.074C259.967 124.074 252.594 127.045 244.255 124.712C244.255 124.712 252.469 131.81 251.906 138.611C251.906 138.611 259.176 133.04 269.713 137.552Z" stroke="#081A2D"/>
</svg>
