<svg width="72" height="132" viewBox="0 0 72 132" fill="none" xmlns="http://www.w3.org/2000/svg">
<g id="Group 13">
<path id="Fill 1" fill-rule="evenodd" clip-rule="evenodd" d="M38.8091 1C38.8091 1 37.515 27.2714 25 30.7433C25 30.7433 35.7885 41.6501 38.8091 59C38.8091 59 43.5726 37.6833 55 32.7248C55 32.7248 40.1032 24.3001 38.8091 1Z" fill="#E2FEFF"/>
<path id="Stroke 3" fill-rule="evenodd" clip-rule="evenodd" d="M38.8091 1C38.8091 1 37.515 27.2714 25 30.7433C25 30.7433 35.7885 41.6501 38.8091 59C38.8091 59 43.5726 37.6833 55 32.7248C55 32.7248 40.1032 24.3001 38.8091 1Z" stroke="black"/>
<path id="Fill 5" fill-rule="evenodd" clip-rule="evenodd" d="M12.0479 52C12.0479 52 11.012 71.9313 1 74.5633C1 74.5633 9.63014 82.8362 12.0479 96C12.0479 96 15.8596 79.8292 25 76.0668C25 76.0668 13.0822 69.6761 12.0479 52Z" fill="#E2FEFF"/>
<path id="Stroke 7" fill-rule="evenodd" clip-rule="evenodd" d="M12.0479 52C12.0479 52 11.012 71.9313 1 74.5633C1 74.5633 9.63014 82.8362 12.0479 96C12.0479 96 15.8596 79.8292 25 76.0668C25 76.0668 13.0822 69.6761 12.0479 52Z" stroke="black" stroke-width="0.76"/>
<path id="Fill 9" fill-rule="evenodd" clip-rule="evenodd" d="M53.8091 73C53.8091 73 52.515 99.2725 40 102.744C40 102.744 50.7885 113.651 53.8091 131C53.8091 131 58.5726 109.684 70 104.726C70 104.726 55.1032 96.2994 53.8091 73Z" fill="#E2FEFF"/>
<path id="Stroke 11" fill-rule="evenodd" clip-rule="evenodd" d="M53.8091 73C53.8091 73 52.515 99.2725 40 102.744C40 102.744 50.7885 113.651 53.8091 131C53.8091 131 58.5726 109.684 70 104.726C70 104.726 55.1032 96.2994 53.8091 73Z" stroke="black"/>
</g>
</svg>
