<svg width="224" height="226" viewBox="0 0 224 226" fill="none" xmlns="http://www.w3.org/2000/svg">
<g id="Group 22">
<ellipse id="Mask" cx="112" cy="113" rx="112" ry="113" fill="#212120"/>
<mask id="mask0" mask-type="alpha" maskUnits="userSpaceOnUse" x="0" y="0" width="224" height="226">
<ellipse id="Mask_2" cx="112" cy="113" rx="112" ry="113" fill="white"/>
</mask>
<g mask="url(#mask0)">
<g id="Group 22_2">
<path id="Fill 1" fill-rule="evenodd" clip-rule="evenodd" d="M-44 93.8864C-44 93.8864 60.1679 42.6401 131.789 52.4632C201.811 62.0669 263 122.283 263 122.283C263 122.283 89.3139 230.606 -44 93.8864Z" fill="#E2FEFF"/>
<path id="Stroke 3" fill-rule="evenodd" clip-rule="evenodd" d="M-44 93.8864C-44 93.8864 60.1679 42.6401 131.789 52.4632C201.811 62.0669 263 122.283 263 122.283C263 122.283 89.3139 230.606 -44 93.8864Z" stroke="black"/>
<path id="Fill 5" fill-rule="evenodd" clip-rule="evenodd" d="M73.2182 107.106C73.2182 86.6131 89.6704 70 109.965 70C130.259 70 146.712 86.6131 146.712 107.106C146.712 127.599 130.259 144.212 109.965 144.212C89.6704 144.212 73.2182 127.599 73.2182 107.106Z" fill="#FF5B33"/>
<path id="Stroke 7" fill-rule="evenodd" clip-rule="evenodd" d="M73.2182 107.106C73.2182 86.6131 89.6704 70 109.965 70C130.259 70 146.712 86.6131 146.712 107.106C146.712 127.599 130.259 144.212 109.965 144.212C89.6704 144.212 73.2182 127.599 73.2182 107.106Z" stroke="black"/>
<path id="Fill 9" fill-rule="evenodd" clip-rule="evenodd" d="M89.0333 106.636C89.0333 95.2227 98.1968 85.9697 109.5 85.9697C120.804 85.9697 129.967 95.2227 129.967 106.636C129.967 118.05 120.804 127.303 109.5 127.303C98.1968 127.303 89.0333 118.05 89.0333 106.636Z" fill="#212120"/>
<path id="Fill 11" fill-rule="evenodd" clip-rule="evenodd" d="M116.295 80.9485C113.701 82.416 111.537 85.6844 112.542 88.7645C112.997 90.1579 113.902 91.3472 114.826 92.4752C116.983 95.1107 119.331 97.581 121.802 99.9129C124.081 102.064 126.485 104.531 129.23 106.018C130.42 106.663 131.934 106.919 133.091 106.216C133.678 105.858 134.117 105.288 134.443 104.674C136.874 100.086 134.908 93.359 132.29 89.2985C129.586 85.1055 125.367 81.9525 120.612 80.6308C118.827 80.1345 117.49 80.2718 116.295 80.9485Z" fill="#E2FEFF"/>
<path id="Stroke 13" fill-rule="evenodd" clip-rule="evenodd" d="M116.295 80.9485C113.701 82.416 111.537 85.6844 112.542 88.7645C112.997 90.1579 113.902 91.3472 114.826 92.4752C116.983 95.1107 119.331 97.581 121.802 99.9129C124.081 102.064 126.485 104.531 129.23 106.018C130.42 106.663 131.934 106.919 133.091 106.216C133.678 105.858 134.117 105.288 134.443 104.674C136.874 100.086 134.908 93.359 132.29 89.2985C129.586 85.1055 125.367 81.9525 120.612 80.6308C118.827 80.1345 117.49 80.2718 116.295 80.9485Z" stroke="black" stroke-width="0.868"/>
<path id="Fill 15" fill-rule="evenodd" clip-rule="evenodd" d="M134.343 110.402C131.134 110.141 126.806 116.462 130.383 118.858C131.896 119.873 134.123 120.175 135.712 119.164C138.414 117.443 137.841 110.686 134.343 110.402Z" fill="#E2FEFF"/>
<path id="Stroke 17" fill-rule="evenodd" clip-rule="evenodd" d="M134.343 110.402C131.134 110.141 126.806 116.462 130.383 118.858C131.896 119.873 134.123 120.175 135.712 119.164C138.414 117.443 137.841 110.686 134.343 110.402Z" stroke="black" stroke-width="0.86"/>
<g id="Group 21">
<mask id="mask1" mask-type="alpha" maskUnits="userSpaceOnUse" x="194" y="39" width="2" height="1">
<path id="Clip 20" fill-rule="evenodd" clip-rule="evenodd" d="M194.342 39.2621H195.503V39.8621H194.342V39.2621Z" fill="white"/>
</mask>
<g mask="url(#mask1)">
<path id="Fill 19" fill-rule="evenodd" clip-rule="evenodd" d="M194.705 39.8621C195.229 39.8621 195.948 39.2618 195.141 39.2618C194.617 39.2618 193.897 39.8621 194.705 39.8621Z" fill="black"/>
</g>
</g>
</g>
</g>
</g>
</svg>
