<svg width="211" height="137" viewBox="0 0 211 137" fill="none" xmlns="http://www.w3.org/2000/svg">
<g clip-path="url(#clip0)">
<path fill-rule="evenodd" clip-rule="evenodd" d="M44.7017 60.7418C69.0481 27.2319 115.951 19.8025 149.462 44.1497C182.973 68.4963 190.401 115.4 166.054 148.91C141.707 182.42 94.8048 189.849 61.2946 165.502C27.7834 141.155 20.3546 94.2526 44.7017 60.7418Z" fill="#FF5B33" stroke="black"/>
<path fill-rule="evenodd" clip-rule="evenodd" d="M61.2946 165.502C27.7834 141.155 20.3546 94.2526 44.7017 60.7418C69.0481 27.2319 115.951 19.8025 149.462 44.1497C182.973 68.4963 190.401 115.4 166.054 148.91C141.707 182.42 94.8048 189.849 61.2946 165.502Z" stroke="#081A2D"/>
<path fill-rule="evenodd" clip-rule="evenodd" d="M145.587 133.285C129.819 154.988 99.3377 159.816 77.635 144.048C55.9322 128.28 51.1045 97.7987 66.8724 76.096C82.6404 54.3933 113.122 49.5655 134.824 65.3335C156.527 81.1014 161.355 111.583 145.587 133.285ZM63.8056 73.8679C46.8122 97.2573 52.0173 130.121 75.4068 147.115C98.7963 164.108 131.66 158.903 148.654 135.514C165.647 112.124 160.442 79.2601 137.053 62.2667C113.663 45.2733 80.7991 50.4784 63.8056 73.8679Z" fill="black"/>
<path fill-rule="evenodd" clip-rule="evenodd" d="M90.1257 113.413C91.5255 111.486 91.0989 108.792 89.1722 107.392C87.2455 105.993 84.5517 106.419 83.1519 108.346C81.7521 110.273 82.1787 112.966 84.1054 114.366C86.0321 115.766 88.7259 115.339 90.1257 113.413Z" fill="black"/>
<path fill-rule="evenodd" clip-rule="evenodd" d="M109.548 86.6797C110.948 84.753 110.522 82.0593 108.595 80.6594C106.668 79.2596 103.974 79.6862 102.575 81.6129C101.175 83.5396 101.601 86.2334 103.528 87.6332C105.455 89.0331 108.149 88.6064 109.548 86.6797Z" fill="black"/>
</g>
<defs>
<clipPath id="clip0">
<rect width="150" height="150" fill="white" transform="translate(0.617813 121.418) rotate(-54)"/>
</clipPath>
</defs>
</svg>
