<svg width="402" height="359" viewBox="0 0 402 359" fill="none" xmlns="http://www.w3.org/2000/svg">
<g id="Group 10">
<g id="Group 3">
<mask id="mask0" mask-type="alpha" maskUnits="userSpaceOnUse" x="150" y="122" width="393" height="214">
<path id="Clip 2" fill-rule="evenodd" clip-rule="evenodd" d="M510.898 335.166L150.195 224.888L181.534 122.384L542.237 232.661L510.898 335.166Z" fill="white"/>
</mask>
<g mask="url(#mask0)">
<path id="Fill 1" d="M444.148 195.031L444.086 195.088L464.236 216.928C462.895 218.17 430.686 247.444 368.064 256.161C332.056 261.174 293.106 258.433 252.297 248.015C202.055 235.193 148.768 210.6 93.9112 174.925C87.0353 170.454 85.0861 161.238 89.5581 154.343C94.0297 147.447 103.228 145.481 110.106 149.953C161.609 183.447 211.353 206.588 257.949 218.731C294.774 228.328 329.705 231.104 361.771 226.983C390.112 223.339 410.981 214.859 423.498 208.386C437.095 201.354 444.079 195.093 444.148 195.031" stroke="#212120" stroke-width="7"/>
</g>
</g>
<g id="Group 9 Copy 2">
<path id="Fill 1_2" fill-rule="evenodd" clip-rule="evenodd" d="M462.034 258.755C434.536 280.974 389.974 271.443 362.503 237.467C335.031 203.491 335.053 157.934 362.551 135.715C390.049 113.496 434.61 123.027 462.081 157.003C489.552 190.981 489.531 236.536 462.034 258.755Z" fill="#835AEC"/>
<path id="Stroke 3" fill-rule="evenodd" clip-rule="evenodd" d="M462.034 258.755C434.536 280.974 389.974 271.443 362.503 237.467C335.031 203.491 335.053 157.934 362.551 135.715C390.049 113.496 434.61 123.027 462.081 157.003C489.552 190.981 489.531 236.536 462.034 258.755Z" stroke="#081A2D"/>
<path id="Stroke 5" d="M402.345 150.589C402.345 150.589 445.62 160.86 455.486 209.778" stroke="black"/>
</g>
<g id="Group 9 Copy">
<path id="Fill 1_3" fill-rule="evenodd" clip-rule="evenodd" d="M50.1889 100.733C74.6953 75.3324 119.917 79.3386 151.195 109.68C182.473 140.022 187.963 185.211 163.456 210.611C138.95 236.011 93.7276 232.005 62.4499 201.663C31.1723 171.321 25.683 126.133 50.1889 100.733Z" fill="#835AEC"/>
<path id="Stroke 3_2" fill-rule="evenodd" clip-rule="evenodd" d="M50.1889 100.733C74.6953 75.3324 119.917 79.3386 151.195 109.68C182.473 140.022 187.963 185.211 163.456 210.611C138.95 236.011 93.7276 232.005 62.4499 201.663C31.1723 171.321 25.683 126.133 50.1889 100.733Z" stroke="#081A2D"/>
<path id="Stroke 5_2" d="M122.302 200.723C122.302 200.723 78.2631 195.825 62.5881 148.512" stroke="black"/>
</g>
</g>
</svg>
