<svg width="252" height="260" viewBox="0 0 252 260" fill="none" xmlns="http://www.w3.org/2000/svg">
<g id="Group 5 Copy">
<g id="Group 2">
<path id="Fill 1" fill-rule="evenodd" clip-rule="evenodd" d="M142.455 244.085C134.285 245.855 130.376 239.459 128.539 233.776C123.654 218.716 132.58 199.083 149.737 187.107C158.175 181.219 167.134 178.24 175.898 178.156C178.393 178.132 180.194 180.304 179.785 182.762C173.535 220.291 155.362 241.287 142.455 244.085ZM122.097 116.862C104.735 145.346 84.7343 161.407 66.2373 160.812C54.1021 160.419 46.9359 152.863 45.3357 146.187C43.9802 140.319 46.6602 134.8 52.874 130.641C67.2754 121.003 89.632 111.683 111.672 107.801C114.717 107.268 117.754 106.831 120.762 106.513C124.15 106.155 126.365 109.6 124.63 112.593C123.792 114.043 122.946 115.465 122.097 116.862ZM193.444 189.119C194.078 185.943 197.848 184.374 200.374 186.193C201.246 186.822 202.108 187.488 202.956 188.192C234.495 214.314 237.699 225.4 237.732 225.526C237.632 225.146 237.641 224.956 237.641 224.956L247.139 223.337C250.076 222.836 251.835 219.66 250.601 217.109C247.334 210.361 238.206 197.652 212.938 176.724C208.335 172.91 203.607 170.032 198.839 167.956C197.35 167.309 196.434 165.842 196.521 164.189C196.667 161.434 196.757 158.632 196.782 155.781C197.117 120.544 180.578 105.024 166.633 98.2026C162.907 96.3793 158.938 94.9577 154.787 93.8966C152.456 93.2992 151.282 90.8385 152.182 88.5223C163.273 59.9984 162.413 37.8913 149.608 22.7379C135.185 5.67837 106.515 -1.39552 64.377 1.71209C34.0819 3.9415 8.09132 10.6857 6.99601 10.9764C2.98733 12.0238 0.361636 16.031 1.13514 19.9303C1.94531 23.8018 5.79583 26.126 9.80356 25.0778C11.381 24.6596 13.1409 24.226 15.0271 23.7878C46.183 16.4787 115.989 6.55958 137.966 32.5648C147.887 44.31 147.448 63.1192 136.657 88.511C135.941 90.1964 134.263 91.3559 132.462 91.3646C121.229 91.4235 109.507 93.2025 98.1667 96.0598C77.5134 101.274 58.1211 110.086 45.198 118.74C33.4867 126.582 28.1367 138.415 30.8997 150.401C30.9721 150.704 31.0443 151.004 31.1218 151.297C34.7637 165.02 48.4193 174.887 64.6801 175.406C94.3301 176.373 117.703 150.42 132.948 126.289C136.557 120.572 139.716 114.955 142.391 109.825C143.335 108.017 145.375 106.984 147.302 107.382C151.594 108.271 155.63 109.586 159.319 111.388C174.584 118.85 182.209 134.102 181.995 156.704C181.985 157.527 181.972 158.342 181.954 159.153C181.899 161.568 179.786 163.551 177.343 163.576C176.852 163.58 176.361 163.589 175.873 163.606C163.107 164.045 151.14 168.867 141.802 175.384C119.106 191.221 107.545 218.09 114.418 239.122C119.227 253.975 130.791 261.337 144.61 258.341C164.436 254.039 185.452 229.148 193.444 189.119Z" fill="white"/>
<g id="Stroke 3">
<path fill-rule="evenodd" clip-rule="evenodd" d="M142.455 244.085C134.285 245.855 130.376 239.459 128.539 233.776C123.654 218.716 132.58 199.083 149.737 187.107C158.175 181.219 167.134 178.24 175.898 178.156C178.393 178.132 180.194 180.304 179.785 182.762C173.535 220.291 155.362 241.287 142.455 244.085ZM122.097 116.862C104.735 145.346 84.7343 161.407 66.2373 160.812C54.1021 160.419 46.9359 152.863 45.3357 146.187C43.9802 140.319 46.6602 134.8 52.874 130.641C67.2754 121.003 89.632 111.683 111.672 107.801C114.717 107.268 117.754 106.831 120.762 106.513C124.15 106.155 126.365 109.6 124.63 112.593C123.792 114.043 122.946 115.465 122.097 116.862ZM193.444 189.119C194.078 185.943 197.848 184.374 200.374 186.193C201.246 186.822 202.108 187.488 202.956 188.192C234.495 214.314 237.699 225.4 237.732 225.526C237.632 225.146 237.641 224.956 237.641 224.956L247.139 223.337C250.076 222.836 251.835 219.66 250.601 217.109C247.334 210.361 238.206 197.652 212.938 176.724C208.335 172.91 203.607 170.032 198.839 167.956C197.35 167.309 196.434 165.842 196.521 164.189C196.667 161.434 196.757 158.632 196.782 155.781C197.117 120.544 180.578 105.024 166.633 98.2026C162.907 96.3793 158.938 94.9577 154.787 93.8966C152.456 93.2992 151.282 90.8385 152.182 88.5223C163.273 59.9984 162.413 37.8913 149.608 22.7379C135.185 5.67837 106.515 -1.39552 64.377 1.71209C34.0819 3.9415 8.09132 10.6857 6.99601 10.9764C2.98733 12.0238 0.361636 16.031 1.13514 19.9303C1.94531 23.8018 5.79583 26.126 9.80356 25.0778C11.381 24.6596 13.1409 24.226 15.0271 23.7878C46.183 16.4787 115.989 6.55958 137.966 32.5648C147.887 44.31 147.448 63.1192 136.657 88.511C135.941 90.1964 134.263 91.3559 132.462 91.3646C121.229 91.4235 109.507 93.2025 98.1667 96.0598C77.5134 101.274 58.1211 110.086 45.198 118.74C33.4867 126.582 28.1367 138.415 30.8997 150.401C30.9721 150.704 31.0443 151.004 31.1218 151.297C34.7637 165.02 48.4193 174.887 64.6801 175.406C94.3301 176.373 117.703 150.42 132.948 126.289C136.557 120.572 139.716 114.955 142.391 109.825C143.335 108.017 145.375 106.984 147.302 107.382C151.594 108.271 155.63 109.586 159.319 111.388C174.584 118.85 182.209 134.102 181.995 156.704C181.985 157.527 181.972 158.342 181.954 159.153C181.899 161.568 179.786 163.551 177.343 163.576C176.852 163.58 176.361 163.589 175.873 163.606C163.107 164.045 151.14 168.867 141.802 175.384C119.106 191.221 107.545 218.09 114.418 239.122C119.227 253.975 130.791 261.337 144.61 258.341C164.436 254.039 185.452 229.148 193.444 189.119Z" fill="#E2FEFF"/>
<path d="M142.455 244.085L142.561 244.574H142.561L142.455 244.085ZM128.539 233.776L129.015 233.623L129.015 233.622L128.539 233.776ZM149.737 187.107L149.451 186.697L149.451 186.697L149.737 187.107ZM175.898 178.156L175.903 178.656H175.903L175.898 178.156ZM179.785 182.762L179.291 182.68L179.291 182.68L179.785 182.762ZM122.097 116.862L122.524 117.123L122.524 117.122L122.097 116.862ZM66.2373 160.812L66.2211 161.311H66.2212L66.2373 160.812ZM45.3357 146.187L44.8485 146.299L44.8494 146.303L45.3357 146.187ZM52.874 130.641L52.5959 130.225L52.5959 130.225L52.874 130.641ZM111.672 107.801L111.585 107.309L111.585 107.309L111.672 107.801ZM120.762 106.513L120.709 106.016H120.709L120.762 106.513ZM124.63 112.593L124.198 112.343L124.198 112.343L124.63 112.593ZM193.444 189.119L193.934 189.217V189.217L193.444 189.119ZM200.374 186.193L200.667 185.788L200.666 185.787L200.374 186.193ZM202.956 188.192L202.637 188.577L202.637 188.577L202.956 188.192ZM237.732 225.526L237.248 225.654L238.216 225.401L237.732 225.526ZM237.641 224.956L237.557 224.463L236.051 224.72L237.417 225.403L237.641 224.956ZM247.139 223.337L247.223 223.83H247.223L247.139 223.337ZM250.601 217.109L251.051 216.891L251.051 216.891L250.601 217.109ZM212.938 176.724L212.618 177.109L212.619 177.109L212.938 176.724ZM198.839 167.956L199.038 167.498L199.038 167.498L198.839 167.956ZM196.521 164.189L196.022 164.162V164.163L196.521 164.189ZM196.782 155.781L196.282 155.777V155.777L196.782 155.781ZM166.633 98.2026L166.413 98.6517L166.414 98.6518L166.633 98.2026ZM154.787 93.8966L154.662 94.3809L154.663 94.381L154.787 93.8966ZM152.182 88.5223L151.716 88.3411L151.716 88.3412L152.182 88.5223ZM149.608 22.7379L149.99 22.4152L149.99 22.4151L149.608 22.7379ZM64.377 1.71209L64.4137 2.21075L64.4138 2.21074L64.377 1.71209ZM6.99601 10.9764L7.12242 11.4601L7.12428 11.4596L6.99601 10.9764ZM1.13514 19.9303L0.644666 20.0276L0.645738 20.0327L1.13514 19.9303ZM9.80356 25.0778L9.93007 25.5616L9.9317 25.5611L9.80356 25.0778ZM15.0271 23.7878L15.1402 24.2748L15.1413 24.2745L15.0271 23.7878ZM137.966 32.5648L138.348 32.2422L138.348 32.2421L137.966 32.5648ZM136.657 88.511L137.117 88.7066L137.117 88.7066L136.657 88.511ZM132.462 91.3646L132.459 90.8646H132.459L132.462 91.3646ZM98.1667 96.0598L98.0445 95.575L98.0443 95.5751L98.1667 96.0598ZM45.198 118.74L45.4762 119.156L45.4762 119.156L45.198 118.74ZM30.8997 150.401L30.4124 150.514L30.4134 150.518L30.8997 150.401ZM31.1218 151.297L30.6385 151.425L30.6385 151.425L31.1218 151.297ZM64.6801 175.406L64.6963 174.906H64.696L64.6801 175.406ZM132.948 126.289L133.37 126.556L133.37 126.556L132.948 126.289ZM142.391 109.825L141.948 109.594L141.948 109.594L142.391 109.825ZM147.302 107.382L147.403 106.892L147.403 106.892L147.302 107.382ZM159.319 111.388L159.539 110.939L159.539 110.939L159.319 111.388ZM181.995 156.704L182.495 156.71V156.709L181.995 156.704ZM181.954 159.153L182.454 159.165L182.454 159.164L181.954 159.153ZM177.343 163.576L177.347 164.076L177.348 164.076L177.343 163.576ZM175.873 163.606L175.856 163.106H175.856L175.873 163.606ZM141.802 175.384L142.088 175.794L142.088 175.794L141.802 175.384ZM114.418 239.122L114.894 238.968L114.894 238.967L114.418 239.122ZM144.61 258.341L144.715 258.83L144.716 258.83L144.61 258.341ZM142.349 243.596C138.43 244.445 135.577 243.34 133.464 241.36C131.326 239.356 129.923 236.43 129.015 233.623L128.064 233.93C128.993 236.805 130.463 239.918 132.78 242.09C135.124 244.287 138.31 245.495 142.561 244.574L142.349 243.596ZM129.015 233.622C124.222 218.846 132.972 199.419 150.024 187.517L149.451 186.697C132.188 198.746 123.086 218.586 128.064 233.931L129.015 233.622ZM150.023 187.517C158.389 181.68 167.252 178.739 175.903 178.656L175.893 177.656C167.016 177.741 157.961 180.759 149.451 186.697L150.023 187.517ZM175.903 178.656C178.077 178.635 179.651 180.518 179.291 182.68L180.278 182.844C180.737 180.089 178.709 177.629 175.893 177.656L175.903 178.656ZM179.291 182.68C176.177 201.384 170.094 215.945 163.202 226.168C156.297 236.409 148.621 242.237 142.349 243.596L142.561 244.574C149.196 243.135 157.061 237.065 164.031 226.727C171.014 216.37 177.143 201.669 180.278 182.844L179.291 182.68ZM121.67 116.602C113.009 130.81 103.705 141.896 94.2827 149.349C84.8591 156.804 75.3471 160.605 66.2534 160.312L66.2212 161.311C75.6245 161.614 85.3615 157.682 94.9031 150.134C104.446 142.585 113.823 131.398 122.524 117.123L121.67 116.602ZM66.2535 160.312C54.3305 159.926 47.3667 152.516 45.8219 146.07L44.8494 146.303C46.5051 153.211 53.8737 160.912 66.2211 161.311L66.2535 160.312ZM45.8228 146.074C44.5269 140.464 47.058 135.136 53.1522 131.056L52.5959 130.225C46.2625 134.465 43.4334 140.173 44.8485 146.299L45.8228 146.074ZM53.1521 131.056C67.493 121.459 89.7839 112.164 111.758 108.293L111.585 107.309C89.48 111.202 67.0577 120.547 52.5959 130.225L53.1521 131.056ZM111.758 108.294C114.793 107.763 117.819 107.327 120.814 107.01L120.709 106.016C117.689 106.335 114.64 106.774 111.585 107.309L111.758 108.294ZM120.814 107.01C123.785 106.696 125.732 109.694 124.198 112.343L125.063 112.844C126.997 109.505 124.514 105.614 120.709 106.016L120.814 107.01ZM124.198 112.343C123.361 113.789 122.517 115.208 121.669 116.603L122.524 117.122C123.375 115.722 124.223 114.297 125.063 112.843L124.198 112.343ZM193.934 189.217C194.502 186.37 197.874 185.009 200.082 186.599L200.666 185.787C197.823 183.739 193.653 185.516 192.953 189.021L193.934 189.217ZM200.082 186.599C200.945 187.221 201.797 187.88 202.637 188.577L203.275 187.807C202.418 187.096 201.548 186.423 200.667 185.788L200.082 186.599ZM202.637 188.577C234.157 214.683 237.256 225.683 237.248 225.651L238.216 225.401C238.142 225.116 234.833 213.945 203.275 187.807L202.637 188.577ZM238.215 225.399C238.171 225.233 238.153 225.115 238.146 225.045C238.142 225.01 238.141 224.987 238.141 224.977C238.141 224.971 238.141 224.969 238.141 224.969C238.141 224.97 238.141 224.971 238.14 224.972C238.14 224.973 238.14 224.974 238.14 224.975C238.14 224.995 238.141 224.968 238.141 224.956H237.141C237.141 224.944 237.141 224.933 237.141 224.933C237.141 224.933 237.141 224.933 237.141 224.933C237.141 224.933 237.141 224.934 237.141 224.934C237.141 224.934 237.141 224.935 237.141 224.935C237.141 224.936 237.141 224.937 237.141 224.938C237.141 224.94 237.141 224.942 237.141 224.944C237.141 224.949 237.141 224.955 237.141 224.961C237.14 224.973 237.141 224.989 237.141 225.007C237.142 225.044 237.145 225.092 237.152 225.152C237.165 225.273 237.192 225.44 237.248 225.654L238.215 225.399ZM237.725 225.449L247.223 223.83L247.055 222.844L237.557 224.463L237.725 225.449ZM247.223 223.83C250.453 223.279 252.445 219.773 251.051 216.891L250.151 217.326C251.225 219.548 249.698 222.393 247.055 222.844L247.223 223.83ZM251.051 216.891C247.738 210.048 238.546 197.284 213.256 176.339L212.619 177.109C237.866 198.019 246.93 210.674 250.151 217.327L251.051 216.891ZM213.257 176.339C208.62 172.496 203.851 169.593 199.038 167.498L198.639 168.415C203.363 170.471 208.051 173.324 212.618 177.109L213.257 176.339ZM199.038 167.498C197.741 166.934 196.944 165.66 197.02 164.215L196.022 164.163C195.924 166.023 196.958 167.684 198.64 168.415L199.038 167.498ZM197.02 164.215C197.167 161.453 197.257 158.644 197.282 155.786L196.282 155.777C196.257 158.62 196.167 161.414 196.022 164.162L197.02 164.215ZM197.282 155.786C197.451 138.086 193.38 125.298 187.484 116.067C181.589 106.837 173.891 101.196 166.853 97.7535L166.414 98.6518C173.321 102.031 180.864 107.56 186.641 116.605C192.418 125.649 196.449 138.24 196.282 155.777L197.282 155.786ZM166.853 97.7535C163.093 95.9136 159.091 94.4809 154.91 93.4121L154.663 94.381C158.784 95.4346 162.721 96.8449 166.413 98.6517L166.853 97.7535ZM154.911 93.4122C152.895 92.8956 151.847 90.7641 152.648 88.7034L151.716 88.3412C150.717 90.9129 152.017 93.7029 154.662 94.3809L154.911 93.4122ZM152.648 88.7035C163.767 60.1096 162.97 37.7752 149.99 22.4152L149.226 23.0606C161.857 38.0075 162.78 59.8871 151.716 88.3411L152.648 88.7035ZM149.99 22.4151C135.4 5.15824 106.504 -1.89609 64.3402 1.21345L64.4138 2.21074C106.525 -0.89495 134.97 6.1985 149.226 23.0607L149.99 22.4151ZM64.3403 1.21344C34.0007 3.44613 7.9761 10.1989 6.86774 10.4931L7.12428 11.4596C8.20653 11.1724 34.1631 4.43687 64.4137 2.21075L64.3403 1.21344ZM6.86961 10.4926C2.62291 11.6023 -0.183813 15.851 0.644693 20.0276L1.62558 19.833C0.907085 16.211 3.35175 12.4454 7.12242 11.4601L6.86961 10.4926ZM0.645738 20.0327C1.51766 24.1993 5.66112 26.678 9.93007 25.5616L9.67705 24.5941C5.93055 25.5739 2.37296 23.4043 1.62453 19.8279L0.645738 20.0327ZM9.9317 25.5611C11.5031 25.1445 13.2579 24.7121 15.1402 24.2748L14.9139 23.3007C13.0239 23.7399 11.2589 24.1747 9.67541 24.5945L9.9317 25.5611ZM15.1413 24.2745C30.696 20.6255 55.8974 16.3259 79.9417 16.1834C91.964 16.1122 103.677 17.0805 113.742 19.6787C123.812 22.2782 132.183 26.4965 137.584 32.8876L138.348 32.2421C132.761 25.6305 124.165 21.3367 113.992 18.7105C103.813 16.083 92.0066 15.1119 79.9358 15.1834C55.7937 15.3265 30.5141 19.641 14.9129 23.301L15.1413 24.2745ZM137.584 32.8875C147.308 44.4 146.974 62.9557 136.197 88.3154L137.117 88.7066C147.922 63.2828 148.465 44.22 138.348 32.2422L137.584 32.8875ZM136.197 88.3154C135.555 89.8263 134.051 90.8569 132.459 90.8646L132.464 91.8646C134.475 91.8548 136.327 90.5665 137.117 88.7066L136.197 88.3154ZM132.459 90.8646C121.177 90.9238 109.415 92.7102 98.0445 95.575L98.2888 96.5447C109.6 93.6948 121.281 91.9233 132.464 91.8646L132.459 90.8646ZM98.0443 95.5751C77.3409 100.802 57.895 109.636 44.9198 118.325L45.4762 119.156C58.3473 110.536 77.6858 101.746 98.2891 96.5446L98.0443 95.5751ZM44.9198 118.325C33.0689 126.26 27.5946 138.289 30.4124 150.514L31.3869 150.289C28.6789 138.541 33.9045 126.904 45.4762 119.156L44.9198 118.325ZM30.4134 150.518C30.4857 150.819 30.5592 151.126 30.6385 151.425L31.6051 151.168C31.5294 150.883 31.4585 150.588 31.3859 150.285L30.4134 150.518ZM30.6385 151.425C34.3469 165.399 48.2237 175.381 64.6641 175.906L64.696 174.906C48.6149 174.393 35.1804 164.641 31.6051 151.168L30.6385 151.425ZM64.6638 175.906C79.648 176.394 93.0184 170.078 104.533 160.646C116.045 151.215 125.733 138.646 133.37 126.556L132.525 126.022C124.918 138.063 115.297 150.536 103.899 159.873C92.5031 169.208 79.3621 175.385 64.6963 174.906L64.6638 175.906ZM133.37 126.556C136.988 120.826 140.154 115.197 142.834 110.056L141.948 109.594C139.278 114.714 136.125 120.319 132.525 126.022L133.37 126.556ZM142.834 110.056C143.683 108.431 145.509 107.522 147.201 107.871L147.403 106.892C145.241 106.445 142.987 107.603 141.948 109.594L142.834 110.056ZM147.2 107.871C151.458 108.754 155.454 110.056 159.1 111.837L159.539 110.939C155.807 109.115 151.73 107.789 147.403 106.892L147.2 107.871ZM159.1 111.837C174.132 119.186 181.708 134.214 181.495 156.699L182.495 156.709C182.71 133.989 175.035 118.514 159.539 110.939L159.1 111.837ZM181.495 156.698C181.485 157.519 181.472 158.333 181.455 159.143L182.454 159.164C182.472 158.351 182.485 157.534 182.495 156.71L181.495 156.698ZM181.455 159.142C181.405 161.271 179.528 163.054 177.337 163.076L177.348 164.076C180.044 164.049 182.392 161.866 182.454 159.165L181.455 159.142ZM177.338 163.076C176.844 163.08 176.349 163.089 175.856 163.106L175.89 164.106C176.374 164.089 176.859 164.08 177.347 164.076L177.338 163.076ZM175.856 163.106C162.977 163.55 150.918 168.412 141.516 174.974L142.088 175.794C151.361 169.322 163.237 164.541 175.89 164.106L175.856 163.106ZM141.516 174.974C118.699 190.895 106.981 217.974 113.943 239.278L114.894 238.967C108.109 218.206 119.513 191.546 142.088 175.794L141.516 174.974ZM113.943 239.276C116.375 246.791 120.531 252.45 125.867 255.847C131.207 259.247 137.689 260.353 144.715 258.83L144.504 257.852C137.711 259.325 131.502 258.249 126.404 255.003C121.301 251.755 117.27 246.307 114.894 238.968L113.943 239.276ZM144.716 258.83C154.784 256.645 165.089 249.251 173.866 237.425C182.648 225.593 189.926 209.292 193.934 189.217L192.953 189.021C188.97 208.975 181.744 225.134 173.063 236.829C164.378 248.532 154.261 255.735 144.504 257.852L144.716 258.83Z" fill="black"/>
</g>
</g>
</g>
</svg>
