<svg width="350" height="348" viewBox="0 0 350 348" fill="none" xmlns="http://www.w3.org/2000/svg">
<g id="Group 74">
<path id="Fill 1" fill-rule="evenodd" clip-rule="evenodd" d="M70.1157 100.596L82.2802 110.736L86.786 105.329L82.2249 101.527L86.8722 95.952L91.4341 99.7539L95.9398 94.3471L83.7769 84.2084L79.2704 89.6146L83.3245 92.9945L78.6764 98.5694L74.6223 95.1895L70.1157 100.596Z" fill="#F05C3A"/>
<g id="Group 73">
<path id="Fill 2" fill-rule="evenodd" clip-rule="evenodd" d="M100.132 80.5055C99.5384 80.5575 98.9704 80.8076 98.4271 81.2554C97.8504 81.7313 97.467 82.2567 97.2756 82.832C97.0856 83.4071 97.1182 83.9309 97.3758 84.4038L101.498 81.0035C101.181 80.6193 100.725 80.453 100.132 80.5055ZM96.0852 91.083C94.8449 90.9279 93.8328 90.3755 93.0494 89.4249C92.2944 88.5092 91.9299 87.4455 91.9575 86.235C91.9857 85.0236 92.3819 83.771 93.1472 82.4755C93.9122 81.1786 95.0019 79.9475 96.4155 78.7816C97.7949 77.6433 99.1616 76.8403 100.513 76.3708C101.866 75.9019 103.115 75.793 104.263 76.0439C105.41 76.2941 106.376 76.8946 107.159 77.8451C107.467 78.2182 107.682 78.5827 107.804 78.9378L98.9992 86.1996C99.5643 86.3793 100.186 86.3147 100.861 86.0041C101.537 85.6941 102.259 85.2223 103.028 84.588C103.831 83.9256 104.568 83.2226 105.238 82.4802C105.909 81.7374 106.394 81.0985 106.695 80.566L109.718 81.7777C109.371 82.5771 108.762 83.4921 107.893 84.5234C107.022 85.5548 106.017 86.5412 104.874 87.483C103.28 88.7985 101.726 89.7661 100.214 90.3864C98.7011 91.0067 97.325 91.2389 96.0852 91.083Z" fill="#F05C3A"/>
<path id="Fill 4" fill-rule="evenodd" clip-rule="evenodd" d="M119.562 66.4071C120.305 66.914 120.966 67.6173 121.549 68.5169L117.048 72.4013C116.604 71.6766 116.126 71.1665 115.62 70.8695C115.113 70.5733 114.669 70.5371 114.29 70.7605C113.849 71.0222 113.624 71.4569 113.617 72.0649C113.611 72.6733 113.824 73.3443 114.256 74.0764L116.953 78.6415L111.46 81.886L105.642 72.0375L110.187 69.3524L112.347 71.3205L112.366 71.3095C112.235 70.2798 112.411 69.2948 112.893 68.3538C113.377 67.4126 114.073 66.6731 114.983 66.136C115.702 65.7117 116.46 65.5233 117.255 65.5726C118.051 65.6218 118.82 65.9002 119.562 66.4071Z" fill="#F05C3A"/>
<path id="Fill 6" fill-rule="evenodd" clip-rule="evenodd" d="M132.134 62.3197C131.553 62.1879 130.935 62.2517 130.281 62.5122C129.585 62.7885 129.059 63.1718 128.701 63.6613C128.343 64.1508 128.215 64.6599 128.314 65.1888L133.283 63.2137C133.099 62.7496 132.716 62.4524 132.134 62.3197ZM125.04 71.155C123.905 70.6272 123.111 69.7903 122.656 68.6448C122.217 67.5416 122.196 66.4168 122.594 65.2727C122.991 64.128 123.752 63.0551 124.878 62.0547C126.003 61.0551 127.419 60.2174 129.122 59.539C130.786 58.8785 132.333 58.531 133.765 58.4991C135.196 58.4658 136.42 58.7451 137.436 59.3363C138.452 59.9262 139.188 60.7944 139.643 61.9393C139.822 62.3893 139.915 62.802 139.923 63.1778L129.311 67.3967C129.795 67.7413 130.406 67.8688 131.144 67.7807C131.883 67.6926 132.715 67.4639 133.643 67.0956C134.61 66.7109 135.527 66.2668 136.393 65.765C137.259 65.2624 137.917 64.8039 138.368 64.3878L140.876 66.4691C140.3 67.1241 139.44 67.8092 138.296 68.525C137.151 69.2402 135.89 69.8721 134.514 70.4191C132.592 71.1831 130.815 71.6286 129.185 71.7568C127.554 71.8836 126.172 71.6834 125.04 71.155Z" fill="#F05C3A"/>
<path id="Fill 8" fill-rule="evenodd" clip-rule="evenodd" d="M143.421 51.1975C143.232 50.3533 143.387 49.5898 143.888 48.906C144.389 48.2231 145.126 47.7723 146.099 47.5543C147.072 47.3357 147.93 47.4288 148.675 47.8336C149.419 48.2379 149.886 48.8625 150.076 49.7059C150.265 50.5509 150.109 51.3144 149.608 51.9981C149.108 52.6811 148.37 53.1319 147.397 53.3499C146.424 53.5679 145.566 53.474 144.821 53.0706C144.077 52.6663 143.61 52.0417 143.421 51.1975ZM150.702 53.5107L153.204 64.6738L146.979 66.0682L144.478 54.9065L150.702 53.5107Z" fill="#F05C3A"/>
<path id="Fill 10" fill-rule="evenodd" clip-rule="evenodd" d="M153.752 63.4784L154.641 60.0828C155.612 60.3313 156.777 60.4938 158.136 60.5732C159.495 60.6527 160.757 60.6279 161.923 60.4991C164.052 60.2655 165.096 59.9666 165.056 59.6019C165.027 59.3397 164.33 59.2396 162.964 59.3005L160.343 59.4117C158.199 59.5007 156.613 59.3385 155.587 58.9286C154.561 58.5173 153.991 57.8011 153.879 56.7804C153.719 55.3226 154.346 54.1583 155.764 53.287C157.18 52.4161 159.149 51.8409 161.672 51.5639C164.149 51.2919 166.477 51.3905 168.653 51.8593L167.851 54.8246C166.975 54.6404 166.009 54.5176 164.955 54.4567C163.9 54.3953 162.893 54.4176 161.93 54.5233C159.977 54.7379 159.02 55.0276 159.06 55.3922C159.086 55.6256 159.657 55.725 160.774 55.6908L163.331 55.5865C165.695 55.4892 167.441 55.6692 168.569 56.1285C169.696 56.5872 170.321 57.3705 170.444 58.4784C170.602 59.9215 169.973 61.0724 168.554 61.9287C167.136 62.785 165.18 63.351 162.688 63.6252C161.185 63.7904 159.615 63.8637 157.975 63.8446C156.335 63.8249 154.928 63.7036 153.752 63.4784Z" fill="#F05C3A"/>
<path id="Fill 12" fill-rule="evenodd" clip-rule="evenodd" d="M174.061 65.2917L176.271 61.431C177.108 61.9497 178.039 62.3927 179.065 62.7602C180.092 63.1274 181.028 63.3488 181.875 63.4269C182.927 63.5244 183.866 63.4707 184.696 63.2677C185.524 63.0642 186.181 62.7268 186.666 62.2566C187.151 61.7855 187.426 61.207 187.489 60.5212L187.563 59.71L187.541 59.7085C187.156 60.6888 186.436 61.436 185.38 61.9504C184.324 62.4647 183.11 62.6575 181.737 62.5311C180.569 62.4238 179.558 62.0908 178.704 61.5337C177.849 60.9766 177.219 60.2598 176.814 59.3834C176.409 58.5056 176.254 57.5487 176.35 56.5122L176.887 50.9298L183.239 51.5147L182.784 56.443C182.712 57.2314 182.865 57.886 183.244 58.4067C183.623 58.9279 184.156 59.2198 184.842 59.2832C185.659 59.3583 186.344 59.1604 186.896 58.688C187.448 58.2161 187.763 57.5491 187.842 56.6881L188.276 51.9791L194.628 52.564L193.81 61.4354C193.673 62.9243 193.093 64.189 192.07 65.2285C191.045 66.2683 189.658 67.0169 187.908 67.4731C186.158 67.9307 184.173 68.0573 181.954 67.8525C180.537 67.7217 179.107 67.4241 177.662 66.9595C176.217 66.4954 175.017 65.9392 174.061 65.2917Z" fill="#F05C3A"/>
<path id="Fill 14" fill-rule="evenodd" clip-rule="evenodd" d="M207.887 61.7892C208.086 61.0525 207.978 60.3894 207.56 59.7977C207.142 59.2061 206.481 58.7879 205.575 58.5433C204.669 58.298 203.887 58.3262 203.228 58.6263C202.57 58.9265 202.142 59.4447 201.942 60.1809C201.743 60.9162 201.852 61.5807 202.27 62.1715C202.687 62.7626 203.349 63.1814 204.255 63.4268C205.161 63.6713 205.943 63.6439 206.601 63.3438C207.26 63.0436 207.688 62.5245 207.887 61.7892ZM196.081 61.8879C195.57 60.7993 195.472 59.6752 195.785 58.5151C196.1 57.3546 196.751 56.4335 197.741 55.7513C198.73 55.0699 199.98 54.675 201.49 54.5673C203.001 54.4595 204.669 54.6524 206.494 55.1454C208.32 55.6399 209.858 56.3141 211.107 57.169C212.358 58.0236 213.238 58.9944 213.749 60.0822C214.26 61.17 214.358 62.2941 214.045 63.4542C213.73 64.6155 213.078 65.5366 212.089 66.218C211.1 66.8994 209.85 67.2951 208.34 67.4028C206.83 67.5098 205.161 67.3169 203.336 66.8238C201.509 66.3297 199.972 65.6552 198.721 64.8005C197.472 63.9456 196.592 62.9748 196.081 61.8879Z" fill="#F05C3A"/>
<path id="Fill 16" fill-rule="evenodd" clip-rule="evenodd" d="M214.519 67.569C214.432 66.6624 214.608 65.7378 215.047 64.793L217.855 58.8201L223.618 61.5056L221.109 66.8893C220.787 67.5815 220.725 68.208 220.925 68.7699C221.124 69.3321 221.57 69.7741 222.261 70.0965C223.019 70.4498 223.724 70.4985 224.376 70.2444C225.029 69.99 225.544 69.4569 225.921 68.6466L228.245 63.6604L234.008 66.3464L229.176 76.7163L224.21 74.4027L224.83 71.511L224.81 71.502C223.883 72.1713 222.834 72.5481 221.661 72.6327C220.49 72.7171 219.279 72.4684 218.029 71.8858C216.991 71.4032 216.169 70.7894 215.562 70.0458C214.954 69.3003 214.606 68.4761 214.519 67.569Z" fill="#F05C3A"/>
<path id="Fill 18" fill-rule="evenodd" clip-rule="evenodd" d="M247.595 77.8842C247.471 78.7749 247.134 79.6812 246.586 80.6015L241.105 78.2915C241.558 77.5703 241.804 76.9173 241.844 76.3304C241.885 75.744 241.721 75.3307 241.352 75.0905C240.923 74.8102 240.433 74.8018 239.884 75.0662C239.335 75.3306 238.829 75.8193 238.364 76.5321L235.469 80.976L230.123 77.4915L236.369 67.9042L240.795 70.7868L239.987 73.5967L240.006 73.6096C240.871 73.0346 241.833 72.7547 242.89 72.771C243.948 72.785 244.919 73.0817 245.804 73.6582C246.506 74.1146 247.01 74.7103 247.32 75.4461C247.628 76.1814 247.72 76.9934 247.595 77.8842Z" fill="#F05C3A"/>
<path id="Fill 20" fill-rule="evenodd" clip-rule="evenodd" d="M259.132 84.7962L257.375 87.5688L257.39 87.5847C258.516 87.2297 259.661 87.2204 260.825 87.5567C261.988 87.8939 263.011 88.5429 263.893 89.5068C264.764 90.4575 265.258 91.447 265.374 92.4755C265.49 93.5032 265.246 94.5015 264.643 95.4723L264.658 95.4882C265.774 95.1431 266.916 95.1415 268.083 95.4828C269.253 95.8253 270.277 96.4776 271.16 97.4407C272.249 98.63 272.762 99.8751 272.7 101.176C272.638 102.475 272.017 103.666 270.838 104.746L265.97 109.204L261.661 104.498L265.88 100.634C266.388 100.169 266.667 99.6754 266.715 99.1531C266.765 98.6306 266.576 98.1364 266.15 97.6718C265.645 97.1202 265.078 96.8486 264.449 96.8577C263.821 96.866 263.204 97.148 262.598 97.7031L258.703 101.269L254.395 96.564L258.613 92.7005C259.122 92.2342 259.4 91.7401 259.449 91.2184C259.498 90.6967 259.309 90.2025 258.884 89.737C258.378 89.1863 257.812 88.9139 257.183 88.923C256.555 88.932 255.937 89.2141 255.332 89.7683L251.438 93.3345L247.128 88.6292L255.566 80.9023L259.132 84.7962Z" fill="#F05C3A"/>
<path id="Fill 22" fill-rule="evenodd" clip-rule="evenodd" d="M278.539 102C279.264 101.529 280.034 101.408 280.849 101.64C281.664 101.871 282.343 102.404 282.886 103.241C283.429 104.077 283.641 104.914 283.521 105.752C283.402 106.591 282.979 107.246 282.253 107.717C281.528 108.188 280.758 108.309 279.943 108.077C279.128 107.847 278.448 107.312 277.906 106.476C277.363 105.64 277.151 104.803 277.27 103.964C277.391 103.126 277.813 102.471 278.539 102ZM278.905 109.63L269.314 115.861L265.839 110.513L275.431 104.281L278.905 109.63Z" fill="#F05C3A"/>
<path id="Fill 24" fill-rule="evenodd" clip-rule="evenodd" d="M280.191 111.138L283.038 116.92L281.646 120.914L285.661 122.247L288.508 128.029L280.922 125.071L278.315 133.218L275.4 127.299L276.89 123.256L272.777 121.972L269.862 116.053L277.813 118.757L280.191 111.138Z" fill="#F05C3A"/>
<path id="Fill 26" fill-rule="evenodd" clip-rule="evenodd" d="M280.836 135.941C281.311 135.247 281.977 134.768 282.832 134.502L286.292 133.403L285.442 130.671L289.013 129.56L289.863 132.291L292.594 131.442L295.539 137.208L291.758 138.384L293.784 144.898L290.212 146.009L288.187 139.496L286.19 140.116C285.616 140.295 285.242 140.584 285.067 140.985C284.891 141.385 284.911 141.928 285.124 142.614C285.342 143.315 285.643 143.923 286.027 144.441C286.411 144.96 286.956 145.516 287.664 146.11L284.401 148.07C283.42 147.284 282.641 146.424 282.066 145.489C281.492 144.554 280.98 143.365 280.531 141.923C280.144 140.676 279.979 139.54 280.036 138.516C280.093 137.492 280.36 136.634 280.836 135.941Z" fill="#F05C3A"/>
<path id="Fill 28" fill-rule="evenodd" clip-rule="evenodd" d="M289.634 159.818L289.657 159.815L288.708 155.747C288.591 155.215 288.452 154.808 288.287 154.526C288.124 154.244 287.955 154.116 287.781 154.14C287.606 154.163 287.492 154.33 287.438 154.641C287.383 154.952 287.392 155.376 287.464 155.914C287.639 157.208 287.917 158.199 288.299 158.888C288.681 159.576 289.126 159.886 289.634 159.818ZM285.837 147.962C286.971 147.81 288.01 148.354 288.956 149.596C289.899 150.838 290.656 152.634 291.225 154.985L292.15 158.879C292.192 159.08 292.254 159.239 292.336 159.353C292.418 159.468 292.496 159.52 292.569 159.51C292.757 159.485 292.873 159.244 292.915 158.787C292.957 158.329 292.923 157.701 292.816 156.902C292.635 155.564 292.25 154.192 291.661 152.783C291.071 151.375 290.349 150.085 289.496 148.913L292.485 147.043C293.364 148.183 294.123 149.583 294.761 151.244C295.4 152.904 295.841 154.643 296.087 156.46C296.332 158.278 296.365 159.868 296.187 161.232C296.008 162.596 295.635 163.671 295.067 164.458C294.501 165.245 293.751 165.702 292.821 165.827L289.528 166.272C289.266 166.306 289.072 166.425 288.943 166.628C288.815 166.83 288.773 167.092 288.816 167.41C288.869 167.803 289.034 168.204 289.311 168.61L286.752 169.888C286.357 169.482 286.016 168.899 285.728 168.139C285.44 167.378 285.232 166.519 285.103 165.558C284.914 164.163 285.009 163.003 285.387 162.078C285.766 161.154 286.396 160.551 287.275 160.269L287.403 160.229L287.4 160.208C286.401 159.824 285.561 159.086 284.882 157.994C284.201 156.902 283.754 155.571 283.543 154C283.304 152.227 283.387 150.809 283.792 149.748C284.196 148.687 284.878 148.093 285.837 147.962Z" fill="#F05C3A"/>
<path id="Fill 30" fill-rule="evenodd" clip-rule="evenodd" d="M290.974 182.923C291.574 182.953 292.067 182.698 292.455 182.159C292.841 181.62 293.057 180.882 293.104 179.944C293.151 179.007 293.008 178.251 292.677 177.677C292.346 177.102 291.879 176.799 291.279 176.769C290.679 176.74 290.185 176.994 289.798 177.533C289.412 178.072 289.195 178.81 289.148 179.748C289.102 180.685 289.244 181.441 289.576 182.016C289.907 182.59 290.373 182.892 290.974 182.923ZM297.025 176.395L293.863 177.096L293.861 177.118C294.881 177.595 295.677 178.402 296.252 179.539C296.828 180.676 297.08 181.949 297.01 183.355C296.948 184.6 296.645 185.683 296.1 186.603C295.555 187.523 294.812 188.217 293.871 188.685C292.929 189.151 291.858 189.355 290.657 189.295C289.455 189.236 288.409 188.927 287.52 188.368C286.629 187.81 285.958 187.046 285.508 186.076C285.056 185.107 284.861 184 284.923 182.755C284.993 181.348 285.366 180.11 286.044 179.043C286.721 177.975 287.591 177.254 288.652 176.882L288.653 176.86L280.94 176.476L281.256 170.103L297.299 170.9L297.025 176.395Z" fill="#F05C3A"/>
<path id="Fill 32" fill-rule="evenodd" clip-rule="evenodd" d="M290.311 201.903C290.748 201.498 291.043 200.951 291.198 200.264C291.361 199.534 291.343 198.883 291.14 198.312C290.937 197.74 290.59 197.346 290.097 197.131L288.926 202.348C289.413 202.457 289.874 202.309 290.311 201.903ZM287.017 191.061C288.092 190.423 289.231 190.239 290.433 190.509C291.592 190.769 292.532 191.386 293.254 192.36C293.975 193.333 294.431 194.567 294.622 196.061C294.813 197.553 294.707 199.195 294.306 200.984C293.915 202.73 293.328 204.204 292.548 205.404C291.767 206.605 290.847 207.458 289.786 207.964C288.725 208.47 287.593 208.588 286.391 208.318C285.919 208.212 285.525 208.056 285.21 207.85L287.712 196.708C287.155 196.914 286.703 197.346 286.36 198.006C286.016 198.666 285.736 199.482 285.518 200.455C285.289 201.471 285.139 202.479 285.065 203.477C284.992 204.475 284.999 205.277 285.088 205.884L281.956 206.781C281.739 205.936 281.659 204.839 281.713 203.491C281.767 202.143 281.957 200.746 282.282 199.301C282.734 197.283 283.368 195.564 284.182 194.146C284.997 192.727 285.941 191.699 287.017 191.061Z" fill="#F05C3A"/>
<path id="Fill 34" fill-rule="evenodd" clip-rule="evenodd" d="M281.545 207.446L284.12 209.831C283.444 210.571 282.75 211.523 282.039 212.682C281.328 213.844 280.753 214.969 280.317 216.058C279.519 218.046 279.29 219.109 279.63 219.245C279.875 219.343 280.293 218.776 280.883 217.543L282.021 215.178C282.956 213.245 283.846 211.922 284.693 211.211C285.54 210.5 286.439 210.336 287.393 210.718C288.754 211.264 289.485 212.368 289.586 214.028C289.685 215.689 289.263 217.697 288.317 220.053C287.388 222.367 286.203 224.374 284.763 226.071L282.526 223.964C283.102 223.278 283.664 222.485 284.217 221.584C284.768 220.683 285.224 219.783 285.585 218.885C286.317 217.06 286.513 216.08 286.172 215.943C285.954 215.855 285.597 216.313 285.1 217.314L283.987 219.618C282.957 221.75 281.972 223.205 281.037 223.983C280.099 224.761 279.114 224.943 278.079 224.527C276.731 223.986 276.014 222.888 275.927 221.232C275.841 219.577 276.265 217.586 277.2 215.258C277.762 213.855 278.438 212.436 279.229 210.998C280.02 209.56 280.792 208.377 281.545 207.446Z" fill="#F05C3A"/>
<g id="Group 38">
<mask id="mask0" mask-type="alpha" maskUnits="userSpaceOnUse" x="249" y="237" width="30" height="31">
<path id="Clip 37" fill-rule="evenodd" clip-rule="evenodd" d="M249.835 256.799L262.777 237.613L278.01 247.888L265.069 267.074L249.835 256.799Z" fill="white"/>
</mask>
<g mask="url(#mask0)">
<path id="Fill 36" fill-rule="evenodd" clip-rule="evenodd" d="M272.271 254.824L268.298 251.35L263.52 256.813L267.493 260.287L262.86 265.584L250.941 255.16L255.575 249.862L260.043 253.772L264.822 248.309L260.353 244.4L264.985 239.102L276.904 249.528L272.271 254.824Z" fill="#F05C3A"/>
</g>
</g>
<path id="Fill 39" fill-rule="evenodd" clip-rule="evenodd" d="M246.412 268.893C247.007 268.855 247.581 268.619 248.136 268.185C248.723 267.724 249.121 267.208 249.325 266.636C249.53 266.066 249.51 265.542 249.265 265.063L245.059 268.362C245.366 268.754 245.817 268.931 246.412 268.893ZM250.719 258.414C251.955 258.6 252.954 259.179 253.713 260.148C254.446 261.083 254.784 262.155 254.727 263.365C254.67 264.575 254.242 265.818 253.445 267.096C252.648 268.373 251.529 269.578 250.086 270.71C248.679 271.813 247.293 272.582 245.929 273.018C244.566 273.455 243.312 273.533 242.172 273.254C241.029 272.975 240.079 272.351 239.319 271.381C239.02 271 238.814 270.63 238.7 270.273L247.685 263.226C247.123 263.033 246.501 263.083 245.817 263.377C245.134 263.67 244.401 264.124 243.616 264.739C242.797 265.383 242.043 266.067 241.355 266.793C240.665 267.52 240.164 268.146 239.85 268.672L236.855 267.385C237.224 266.594 237.854 265.694 238.75 264.684C239.645 263.675 240.675 262.713 241.84 261.799C243.467 260.523 245.046 259.593 246.573 259.01C248.1 258.427 249.483 258.228 250.719 258.414Z" fill="#F05C3A"/>
<path id="Fill 41" fill-rule="evenodd" clip-rule="evenodd" d="M226.637 282.536C225.907 282.013 225.262 281.293 224.701 280.38L229.294 276.603C229.721 277.338 230.185 277.86 230.685 278.169C231.185 278.477 231.628 278.524 232.011 278.309C232.46 278.059 232.694 277.63 232.716 277.021C232.737 276.413 232.54 275.737 232.125 274.995L229.538 270.367L235.107 267.254L240.689 277.24L236.08 279.816L233.968 277.796L233.949 277.807C234.055 278.84 233.856 279.82 233.35 280.75C232.844 281.679 232.132 282.401 231.21 282.917C230.48 283.324 229.718 283.494 228.923 283.426C228.129 283.357 227.366 283.061 226.637 282.536Z" fill="#F05C3A"/>
<path id="Fill 43" fill-rule="evenodd" clip-rule="evenodd" d="M213.971 286.313C214.549 286.46 215.168 286.41 215.828 286.166C216.53 285.905 217.065 285.535 217.434 285.055C217.804 284.574 217.945 284.069 217.858 283.537L212.845 285.393C213.018 285.861 213.393 286.167 213.971 286.313ZM221.274 277.651C222.394 278.207 223.168 279.061 223.596 280.217C224.008 281.331 224.003 282.455 223.578 283.59C223.154 284.724 222.367 285.779 221.217 286.751C220.068 287.723 218.634 288.528 216.915 289.164C215.237 289.786 213.682 290.095 212.25 290.093C210.819 290.092 209.603 289.784 208.601 289.17C207.6 288.555 206.885 287.67 206.457 286.515C206.289 286.06 206.206 285.646 206.207 285.27L216.914 281.306C216.439 280.95 215.831 280.808 215.091 280.878C214.351 280.949 213.513 281.158 212.578 281.504C211.601 281.866 210.674 282.286 209.797 282.768C208.92 283.25 208.251 283.692 207.791 284.097L205.333 281.957C205.925 281.317 206.801 280.652 207.961 279.964C209.122 279.277 210.397 278.676 211.786 278.161C213.725 277.443 215.511 277.04 217.144 276.952C218.777 276.864 220.153 277.096 221.274 277.651Z" fill="#F05C3A"/>
<path id="Fill 45" fill-rule="evenodd" clip-rule="evenodd" d="M195.201 294.676L192.968 283.455L199.225 282.21L201.458 293.431L195.201 294.676ZM202.424 297.164C202.594 298.012 202.42 298.772 201.903 299.444C201.386 300.114 200.639 300.548 199.66 300.742C198.682 300.937 197.826 300.823 197.091 300.401C196.357 299.979 195.905 299.344 195.736 298.495C195.568 297.646 195.741 296.886 196.258 296.215C196.776 295.544 197.523 295.111 198.501 294.917C199.479 294.722 200.335 294.835 201.07 295.257C201.805 295.679 202.256 296.315 202.424 297.164Z" fill="#F05C3A"/>
<path id="Fill 47" fill-rule="evenodd" clip-rule="evenodd" d="M192.39 284.639L191.421 288.011C190.455 287.74 189.295 287.549 187.939 287.437C186.582 287.325 185.32 287.319 184.151 287.419C182.018 287.601 180.967 287.875 180.998 288.24C181.02 288.504 181.714 288.621 183.081 288.592L185.704 288.545C187.849 288.508 189.43 288.707 190.446 289.143C191.462 289.579 192.014 290.308 192.101 291.33C192.227 292.791 191.57 293.939 190.133 294.777C188.697 295.614 186.714 296.14 184.186 296.357C181.703 296.569 179.379 296.414 177.216 295.893L178.09 292.949C178.96 293.153 179.922 293.299 180.974 293.386C182.027 293.473 183.035 293.475 183.999 293.392C185.957 293.225 186.921 292.959 186.889 292.593C186.869 292.359 186.3 292.246 185.182 292.253L182.625 292.295C180.259 292.336 178.518 292.113 177.402 291.627C176.287 291.142 175.681 290.343 175.586 289.234C175.462 287.787 176.119 286.653 177.558 285.831C178.996 285.008 180.964 284.49 183.463 284.277C184.968 284.148 186.539 284.113 188.178 284.171C189.816 284.229 191.221 284.386 192.39 284.639Z" fill="#F05C3A"/>
<path id="Fill 49" fill-rule="evenodd" clip-rule="evenodd" d="M172.133 282.34L169.827 286.147C169.004 285.607 168.084 285.141 167.066 284.75C166.049 284.357 165.118 284.112 164.273 284.013C163.223 283.89 162.283 283.92 161.449 284.103C160.616 284.286 159.95 284.607 159.453 285.066C158.957 285.524 158.668 286.097 158.588 286.781L158.494 287.59L158.515 287.592C158.925 286.622 159.664 285.891 160.731 285.404C161.801 284.917 163.019 284.752 164.39 284.913C165.555 285.049 166.558 285.405 167.399 285.985C168.239 286.563 168.851 287.295 169.235 288.181C169.619 289.068 169.75 290.029 169.629 291.063L168.956 296.633L162.617 295.892L163.193 290.975C163.284 290.189 163.148 289.53 162.782 288.999C162.415 288.47 161.89 288.165 161.205 288.084C160.389 287.988 159.699 288.17 159.137 288.629C158.573 289.087 158.242 289.746 158.141 290.606L157.592 295.304L151.254 294.563L152.289 285.713C152.464 284.226 153.074 282.976 154.123 281.961C155.172 280.948 156.578 280.233 158.339 279.818C160.101 279.404 162.089 279.327 164.304 279.586C165.716 279.751 167.141 280.083 168.573 280.584C170.007 281.083 171.193 281.669 172.133 282.34Z" fill="#F05C3A"/>
<path id="Fill 51" fill-rule="evenodd" clip-rule="evenodd" d="M138.233 285.028C138.016 285.759 138.109 286.426 138.512 287.027C138.915 287.628 139.566 288.062 140.466 288.329C141.365 288.595 142.148 288.587 142.814 288.302C143.479 288.018 143.921 287.51 144.138 286.779C144.355 286.049 144.262 285.382 143.858 284.78C143.455 284.179 142.804 283.745 141.904 283.479C141.005 283.211 140.222 283.22 139.557 283.505C138.891 283.789 138.45 284.297 138.233 285.028ZM150.039 285.215C150.524 286.314 150.595 287.44 150.253 288.593C149.911 289.746 149.238 290.651 148.232 291.309C147.225 291.967 145.967 292.331 144.455 292.403C142.941 292.474 141.279 292.241 139.465 291.703C137.652 291.165 136.13 290.454 134.901 289.569C133.672 288.685 132.816 287.692 132.331 286.593C131.846 285.493 131.775 284.366 132.118 283.214C132.459 282.061 133.132 281.156 134.139 280.498C135.144 279.841 136.403 279.475 137.916 279.404C139.429 279.333 141.091 279.567 142.905 280.105C144.718 280.642 146.24 281.353 147.469 282.238C148.698 283.122 149.554 284.114 150.039 285.215Z" fill="#F05C3A"/>
<path id="Fill 53" fill-rule="evenodd" clip-rule="evenodd" d="M131.747 279.09C131.812 279.998 131.615 280.918 131.152 281.851L128.203 287.757L122.506 284.934L125.142 279.611C125.48 278.928 125.557 278.303 125.371 277.736C125.184 277.17 124.751 276.717 124.067 276.379C123.318 276.008 122.614 275.941 121.955 276.18C121.297 276.419 120.77 276.939 120.373 277.741L117.931 282.669L112.234 279.848L117.311 269.595L122.22 272.027L121.532 274.902L121.552 274.912C122.494 274.266 123.552 273.914 124.726 273.857C125.9 273.8 127.105 274.077 128.34 274.689C129.366 275.197 130.173 275.831 130.763 276.589C131.354 277.348 131.681 278.182 131.747 279.09Z" fill="#F05C3A"/>
<path id="Fill 55" fill-rule="evenodd" clip-rule="evenodd" d="M98.9063 267.852C99.0636 266.968 99.4332 266.074 100.013 265.175L105.403 267.684C104.925 268.387 104.655 269.031 104.592 269.615C104.531 270.199 104.679 270.618 105.038 270.871C105.458 271.167 105.947 271.193 106.504 270.949C107.061 270.706 107.585 270.237 108.076 269.541L111.13 265.211L116.343 268.886L109.751 278.232L105.438 275.19L106.347 272.413L106.329 272.4C105.445 272.942 104.474 273.187 103.418 273.132C102.361 273.078 101.402 272.747 100.538 272.138C99.8556 271.657 99.3738 271.043 99.0922 270.298C98.8111 269.552 98.7484 268.737 98.9063 267.852Z" fill="#F05C3A"/>
<path id="Fill 57" fill-rule="evenodd" clip-rule="evenodd" d="M87.5541 260.796L89.3778 258.067L89.3632 258.051C88.229 258.379 87.0844 258.361 85.9293 257.996C84.775 257.631 83.7688 256.957 82.9112 255.973C82.0631 255.001 81.5939 253.999 81.5024 252.969C81.4126 251.939 81.6806 250.947 82.3068 249.991L82.2922 249.976C81.1688 250.293 80.0279 250.267 78.8681 249.896C77.7085 249.527 76.6996 248.85 75.8421 247.866C74.7817 246.65 74.2981 245.393 74.393 244.095C74.4871 242.797 75.1364 241.623 76.3411 240.572L81.3148 236.235L85.5062 241.044L81.1966 244.803C80.6766 245.255 80.3866 245.742 80.3242 246.262C80.2634 246.783 80.4393 247.281 80.8539 247.757C81.3451 248.32 81.9055 248.605 82.5328 248.612C83.1621 248.618 83.7853 248.352 84.4043 247.812L88.3834 244.343L92.5754 249.151L88.2658 252.91C87.7458 253.362 87.4558 253.849 87.3933 254.369C87.3326 254.89 87.5085 255.388 87.9231 255.864C88.4151 256.428 88.9746 256.712 89.602 256.719C90.2307 256.726 90.8545 256.459 91.4729 255.92L95.4525 252.45L99.6445 257.258L91.0245 264.775L87.5541 260.796Z" fill="#F05C3A"/>
<path id="Fill 59" fill-rule="evenodd" clip-rule="evenodd" d="M68.3802 235.51L78.1176 229.502L81.4689 234.932L71.7307 240.94L68.3802 235.51ZM68.5694 243.15C67.8322 243.604 67.0595 243.705 66.2501 243.455C65.4408 243.205 64.7742 242.655 64.2507 241.807C63.7261 240.958 63.5343 240.115 63.6736 239.279C63.813 238.443 64.2511 237.799 64.9874 237.344C65.7246 236.89 66.4973 236.788 67.3066 237.039C68.116 237.289 68.7831 237.838 69.306 238.687C69.8306 239.536 70.0224 240.378 69.8831 241.215C69.7438 242.051 69.3057 242.695 68.5694 243.15Z" fill="#F05C3A"/>
<path id="Fill 61" fill-rule="evenodd" clip-rule="evenodd" d="M67.1346 233.964L64.4258 228.114L65.9124 224.152L61.9299 222.723L59.221 216.873L66.7364 220.012L69.5384 211.926L72.312 217.916L70.7249 221.924L74.8079 223.307L77.5815 229.297L69.695 226.402L67.1346 233.964Z" fill="#F05C3A"/>
<path id="Fill 63" fill-rule="evenodd" clip-rule="evenodd" d="M67.084 209.147C66.5927 209.829 65.9162 210.292 65.0565 210.538L61.5724 211.555L62.3574 214.304L58.7615 215.33L57.9771 212.581L55.2273 213.365L52.4196 207.533L56.2266 206.447L54.3555 199.89L57.9517 198.865L59.8225 205.42L61.8311 204.848C62.4098 204.682 62.7912 204.403 62.9751 204.007C63.1602 203.61 63.154 203.067 62.9564 202.377C62.7553 201.672 62.469 201.055 62.098 200.529C61.7262 200.002 61.1942 199.433 60.5016 198.823L63.8073 196.941C64.7698 197.75 65.5275 198.627 66.0799 199.575C66.6322 200.523 67.1155 201.724 67.5304 203.176C67.8889 204.431 68.0266 205.57 67.9443 206.591C67.8628 207.613 67.5761 208.466 67.084 209.147Z" fill="#F05C3A"/>
<path id="Fill 65" fill-rule="evenodd" clip-rule="evenodd" d="M58.8575 185.071L58.8356 185.074L59.688 189.162C59.7905 189.697 59.9219 190.106 60.0782 190.392C60.2359 190.676 60.4016 190.81 60.5764 190.79C60.7512 190.771 60.8697 190.606 60.9313 190.296C60.9923 189.988 60.9941 189.563 60.934 189.024C60.7899 187.727 60.5348 186.73 60.17 186.032C59.8055 185.334 59.3679 185.014 58.8575 185.071ZM62.373 197.009C61.2363 197.135 60.2101 196.566 59.2947 195.303C58.3808 194.04 57.6667 192.227 57.1541 189.864L56.3213 185.951C56.2842 185.748 56.2257 185.588 56.1461 185.472C56.0672 185.354 55.9912 185.301 55.9185 185.308C55.7281 185.33 55.6073 185.568 55.5549 186.025C55.5022 186.48 55.5207 187.109 55.6096 187.911C55.7579 189.252 56.1105 190.632 56.6664 192.054C57.222 193.474 57.9133 194.781 58.7392 195.973L55.7066 197.771C54.8553 196.611 54.1302 195.193 53.531 193.519C52.9324 191.844 52.5313 190.096 52.3293 188.274C52.1278 186.452 52.132 184.862 52.3426 183.503C52.5533 182.145 52.9518 181.078 53.537 180.305C54.1228 179.532 54.8812 179.094 55.8148 178.99L59.1162 178.624C59.3793 178.595 59.5768 178.481 59.7088 178.282C59.8416 178.083 59.8905 177.823 59.8548 177.502C59.8114 177.108 59.6552 176.705 59.3884 176.292L61.9763 175.076C62.361 175.491 62.689 176.081 62.9583 176.848C63.2279 177.616 63.416 178.48 63.5223 179.441C63.6775 180.84 63.5553 181.998 63.1546 182.912C62.7555 183.828 62.1119 184.415 61.2255 184.676L61.0971 184.712L61.0998 184.734C62.0894 185.14 62.9116 185.898 63.5648 187.005C64.2189 188.114 64.633 189.454 64.8086 191.029C65.0051 192.807 64.889 194.222 64.4601 195.272C64.0306 196.324 63.3349 196.903 62.373 197.009Z" fill="#F05C3A"/>
<path id="Fill 67" fill-rule="evenodd" clip-rule="evenodd" d="M58.0744 161.945C57.4744 161.901 56.9755 162.144 56.5763 162.673C56.1771 163.202 55.9427 163.934 55.8741 164.871C55.8044 165.806 55.929 166.566 56.2468 167.148C56.5637 167.73 57.0216 168.043 57.6215 168.087C58.2215 168.131 58.7204 167.889 59.1196 167.36C59.5188 166.83 59.7524 166.098 59.8226 165.162C59.8906 164.226 59.7669 163.467 59.45 162.885C59.1322 162.303 58.673 161.99 58.0744 161.945ZM51.8696 168.324L55.0478 167.699L55.0493 167.677C54.043 167.176 53.2654 166.352 52.7174 165.2C52.1703 164.05 51.9482 162.773 52.052 161.369C52.1433 160.127 52.4731 159.051 53.0396 158.145C53.6067 157.238 54.365 156.563 55.3174 156.119C56.2683 155.674 57.3438 155.496 58.5437 155.584C59.7422 155.673 60.7802 156.006 61.6557 156.586C62.5318 157.165 63.1841 157.945 63.6115 158.924C64.0397 159.904 64.2073 161.015 64.1162 162.259C64.0124 163.662 63.6092 164.89 62.9073 165.941C62.2046 166.992 61.3191 167.691 60.2492 168.038L60.2477 168.06L67.9467 168.627L67.4782 174.989L51.466 173.808L51.8696 168.324Z" fill="#F05C3A"/>
<path id="Fill 69" fill-rule="evenodd" clip-rule="evenodd" d="M59.1883 142.972C58.7421 143.367 58.4341 143.906 58.2637 144.589C58.0828 145.315 58.0862 145.966 58.2753 146.543C58.4636 147.118 58.8017 147.52 59.2897 147.748L60.5842 142.56C60.0997 142.439 59.6344 142.577 59.1883 142.972ZM62.225 153.888C61.1353 154.5 59.9918 154.658 58.7963 154.359C57.6441 154.072 56.719 153.433 56.0207 152.442C55.3232 151.452 54.897 150.208 54.7406 148.711C54.5856 147.213 54.7296 145.574 55.1733 143.795C55.6067 142.06 56.227 140.6 57.0361 139.419C57.8446 138.238 58.7857 137.406 59.8578 136.925C60.9298 136.445 62.0639 136.353 63.2593 136.652C63.7294 136.768 64.1182 136.934 64.4282 137.147L61.6641 148.226C62.2267 148.034 62.6872 147.613 63.046 146.961C63.4043 146.31 63.7052 145.501 63.9464 144.533C64.1979 143.522 64.3725 142.519 64.4705 141.523C64.568 140.527 64.579 139.724 64.5035 139.117L67.6576 138.293C67.853 139.142 67.9081 140.241 67.822 141.588C67.7351 142.935 67.5129 144.326 67.1548 145.764C66.6539 147.771 65.9799 149.473 65.1317 150.872C64.284 152.27 63.3147 153.276 62.225 153.888Z" fill="#F05C3A"/>
<path id="Fill 71" fill-rule="evenodd" clip-rule="evenodd" d="M68.0975 137.631L65.5815 135.186C66.2744 134.463 66.9905 133.53 67.7292 132.386C68.4673 131.244 69.0683 130.133 69.5309 129.055C70.3753 127.088 70.6289 126.032 70.2925 125.887C70.0503 125.783 69.6191 126.34 69.0009 127.559L67.8059 129.894C66.8271 131.803 65.9056 133.103 65.0421 133.793C64.1794 134.484 63.2758 134.627 62.3334 134.222C60.9869 133.643 60.2824 132.523 60.2223 130.862C60.1622 129.2 60.632 127.203 61.6328 124.874C62.6168 122.583 63.8484 120.607 65.3282 118.945L67.5126 121.103C66.9207 121.775 66.3388 122.554 65.7665 123.441C65.194 124.328 64.7163 125.217 64.3351 126.105C63.5601 127.911 63.3404 128.886 63.6769 129.03C63.8922 129.123 64.2605 128.675 64.7811 127.685L65.9497 125.411C67.0295 123.305 68.046 121.875 69.0014 121.121C69.9559 120.365 70.9453 120.207 71.9694 120.647C73.3026 121.221 73.993 122.334 74.0398 123.991C74.0871 125.646 73.6155 127.626 72.6262 129.929C72.0293 131.317 71.32 132.719 70.4958 134.138C69.6719 135.554 68.8718 136.719 68.0975 137.631Z" fill="#F05C3A"/>
</g>
</g>
</svg>
