<svg width="26" height="29" viewBox="0 0 26 29" fill="none" xmlns="http://www.w3.org/2000/svg">
<path d="M0.73209 16.2465L3.94326 13.1008C4.25271 12.7977 4.75903 12.7977 5.06815 13.1008L9.93378 17.8672L9.93378 0.779319C9.93378 0.350694 10.2918 0 10.7293 0L15.2707 0C15.7082 0 16.0662 0.350694 16.0662 0.779319L16.0662 17.8672L20.9319 13.1008C21.2413 12.7977 21.7476 12.7977 22.0567 13.1008L25.2679 16.2465C25.5774 16.5496 25.5774 17.0456 25.2679 17.3484L13.6034 28.7754C13.4382 28.9372 13.2174 29.0098 13 28.9989C12.7826 29.0098 12.5618 28.9372 12.3966 28.7754L0.73209 17.3488C0.422636 17.0456 0.422636 16.5496 0.73209 16.2465Z" fill="#191919"/>
</svg>
