<svg width="219" height="57" viewBox="0 0 219 57" fill="none" xmlns="http://www.w3.org/2000/svg">
<path d="M0.927048 31.3123L6.8356 25.3464C7.40499 24.7715 8.33662 24.7715 8.90539 25.3464L17.8582 34.3861L17.8582 1.97802C17.8582 1.16511 18.5169 0.5 19.322 0.5L27.678 0.5C28.4831 0.5 29.1418 1.16511 29.1418 1.97802L29.1418 34.3861L38.0946 25.3464C38.664 24.7715 39.5956 24.7715 40.1644 25.3464L46.073 31.3123C46.6423 31.8872 46.6423 32.8279 46.073 33.4022L24.6103 55.074C24.3063 55.3809 23.9001 55.5187 23.5 55.498C23.0999 55.5187 22.6937 55.3809 22.3897 55.074L0.927048 33.4028C0.357655 32.8279 0.357655 31.8872 0.927048 31.3123Z" fill="#191919"/>
<path d="M172.927 31.3123L178.836 25.3464C179.405 24.7715 180.337 24.7715 180.905 25.3464L189.858 34.3861V1.97802C189.858 1.16511 190.517 0.5 191.322 0.5L199.678 0.5C200.483 0.5 201.142 1.16511 201.142 1.97802V34.3861L210.095 25.3464C210.664 24.7715 211.596 24.7715 212.164 25.3464L218.073 31.3123C218.642 31.8872 218.642 32.8279 218.073 33.4022L196.61 55.074C196.306 55.3809 195.9 55.5187 195.5 55.498C195.1 55.5187 194.694 55.3809 194.39 55.074L172.927 33.4028C172.358 32.8279 172.358 31.8872 172.927 31.3123Z" fill="#191919"/>
<ellipse cx="111.5" cy="22.5" rx="54.5" ry="21.5" fill="#835AEC"/>
<path d="M88.927 32.3123L94.8356 26.3464C95.405 25.7715 96.3366 25.7715 96.9054 26.3464L105.858 35.3861V2.97802C105.858 2.16511 106.517 1.5 107.322 1.5L115.678 1.5C116.483 1.5 117.142 2.16511 117.142 2.97802V35.3861L126.095 26.3464C126.664 25.7715 127.596 25.7715 128.164 26.3464L134.073 32.3123C134.642 32.8872 134.642 33.8279 134.073 34.4022L112.61 56.074C112.306 56.3809 111.9 56.5187 111.5 56.498C111.1 56.5187 110.694 56.3809 110.39 56.074L88.927 34.4028C88.3577 33.8279 88.3577 32.8872 88.927 32.3123Z" fill="#FF6E35"/>
</svg>
