<svg width="180" height="227" viewBox="0 0 180 227" fill="none" xmlns="http://www.w3.org/2000/svg">
<path fill-rule="evenodd" clip-rule="evenodd" d="M178.991 113.053C178.991 170.966 160.778 217.914 138.311 217.914C115.844 217.914 97.6304 170.966 97.6304 113.053C97.6304 55.1403 115.844 8.19263 138.311 8.19263C160.778 8.19263 178.991 55.1403 178.991 113.053Z" fill="white"/>
<path fill-rule="evenodd" clip-rule="evenodd" d="M178.991 113.053C178.991 170.966 160.778 217.914 138.311 217.914C115.844 217.914 97.6304 170.966 97.6304 113.053C97.6304 55.1403 115.844 8.19263 138.311 8.19263C160.778 8.19263 178.991 55.1403 178.991 113.053Z" stroke="#212120"/>
<path fill-rule="evenodd" clip-rule="evenodd" d="M155.931 113.397L168.494 122.201C166.138 142.187 158.93 156.742 150.392 156.742C139.957 156.742 131.48 134.916 131.48 107.998C131.48 81.08 139.957 59.2534 150.392 59.2534C158.93 59.2534 166.138 73.809 168.494 93.7928L155.931 113.397Z" fill="#212120"/>
<path fill-rule="evenodd" clip-rule="evenodd" d="M118.954 107.998C118.954 165.911 100.742 212.859 78.2739 212.859C55.806 212.859 37.5938 165.911 37.5938 107.998C37.5938 50.0853 55.806 3.13593 78.2739 3.13593C100.742 3.13593 118.954 50.0853 118.954 107.998Z" fill="white"/>
<path d="M118.954 107.998C118.954 165.911 100.742 212.859 78.2739 212.859C55.806 212.859 37.5938 165.911 37.5938 107.998C37.5938 50.0853 55.806 3.13593 78.2739 3.13593C100.742 3.13593 118.954 50.0853 118.954 107.998" stroke="black"/>
<path fill-rule="evenodd" clip-rule="evenodd" d="M118.954 107.998C118.954 165.911 100.742 212.859 78.2739 212.859C55.806 212.859 37.5938 165.911 37.5938 107.998C37.5938 50.0853 55.806 3.13593 78.2739 3.13593C100.742 3.13593 118.954 50.0853 118.954 107.998Z" stroke="#212120"/>
<path fill-rule="evenodd" clip-rule="evenodd" d="M97.0756 113.397L109.637 122.201C107.281 142.187 100.075 156.742 91.5367 156.742C81.1005 156.742 72.625 134.916 72.625 107.998C72.625 81.08 81.1005 59.2534 91.5367 59.2534C100.075 59.2534 107.281 73.809 109.637 93.7928L97.0756 113.397Z" fill="#212120"/>
<path fill-rule="evenodd" clip-rule="evenodd" d="M49.9463 0.161499C49.9463 0.161499 48.1674 31.6823 30.96 35.8461C30.96 35.8461 45.7926 48.9299 49.9463 69.7475C49.9463 69.7475 56.4952 44.1721 72.2071 38.225C72.2071 38.225 51.7253 28.114 49.9463 0.161499Z" fill="white"/>
<path fill-rule="evenodd" clip-rule="evenodd" d="M49.9463 0.161499C49.9463 0.161499 48.1674 31.6823 30.96 35.8461C30.96 35.8461 45.7926 48.9299 49.9463 69.7475C49.9463 69.7475 56.4952 44.1721 72.2071 38.225C72.2071 38.225 51.7253 28.114 49.9463 0.161499Z" stroke="#212120"/>
<path fill-rule="evenodd" clip-rule="evenodd" d="M20.9414 156.496C20.9414 156.496 19.1625 188.017 1.95508 192.181C1.95508 192.181 16.7877 205.264 20.9414 226.08C20.9414 226.08 27.4903 200.507 43.2022 194.559C43.2022 194.559 22.7204 184.448 20.9414 156.496Z" fill="white"/>
<path fill-rule="evenodd" clip-rule="evenodd" d="M20.9414 156.496C20.9414 156.496 19.1625 188.017 1.95508 192.181C1.95508 192.181 16.7877 205.264 20.9414 226.08C20.9414 226.08 27.4903 200.507 43.2022 194.559C43.2022 194.559 22.7204 184.448 20.9414 156.496Z" stroke="#212120"/>
</svg>
