<svg width="71" height="71" viewBox="0 0 71 71" fill="none" xmlns="http://www.w3.org/2000/svg">
<g id="Group 3 Copy 6">
<mask id="mask0" mask-type="alpha" maskUnits="userSpaceOnUse" x="0" y="0" width="71" height="71">
<path id="Clip 2" fill-rule="evenodd" clip-rule="evenodd" d="M0 -9.15527e-05H70.5617V70.5698H0V-9.15527e-05Z" fill="white"/>
</mask>
<g mask="url(#mask0)">
<path id="Fill 1" fill-rule="evenodd" clip-rule="evenodd" d="M70.5547 35.0242C64.9257 35.0242 53.6227 34.8042 53.4307 34.7952C42.5857 34.3052 35.8257 22.4592 35.9087 11.6032C35.9387 7.4762 35.8057 2.3122 35.7187 0.491197C35.6887 -0.126803 35.1827 -0.0128029 34.9427 0.0541971V13.9822C34.9427 17.6782 34.0757 21.3612 32.1847 24.5372C30.4087 27.5172 27.9777 29.8572 25.0107 31.6752C21.4347 33.8652 17.2617 34.8792 13.0697 34.8792H-0.000301361C0.00269864 35.1822 0.00469864 35.4842 0.00769864 35.7862H14.0617C17.9577 35.7862 21.8437 36.7022 25.1777 38.7192C28.0057 40.4312 30.2837 42.6902 31.9957 45.5132C33.9867 48.7962 34.8857 52.6262 34.8857 56.4652V70.5702C35.2777 70.5662 35.6697 70.5632 36.0627 70.5602V57.1422C36.0627 52.1632 37.5757 47.2332 40.6887 43.3452C42.2177 41.4362 44.0367 39.8272 46.1707 38.5462C49.4307 36.5892 53.2247 35.7102 57.0267 35.7102H70.5617C70.5597 35.4822 70.5567 35.2532 70.5547 35.0242Z" fill="#212120"/>
</g>
</g>
</svg>
