<svg width="68" height="80" viewBox="0 0 68 80" fill="none" xmlns="http://www.w3.org/2000/svg">
<path id="Path Copy" d="M0.631287 44.8179L9.36567 36.1402C10.2074 35.3039 11.5846 35.3039 12.4254 36.1402L25.6599 49.2889L25.6599 2.14985C25.6599 0.967431 26.6336 0 27.8238 0L40.1762 0C41.3664 0 42.3401 0.967431 42.3401 2.14985L42.3401 49.2889L55.5746 36.1402C56.4164 35.3039 57.7935 35.3039 58.6343 36.1402L67.3687 44.8179C68.2104 45.6542 68.2104 47.0224 67.3687 47.8578L35.6413 79.3803C35.192 79.8267 34.5914 80.0271 34 79.9971C33.4086 80.0271 32.808 79.8267 32.3587 79.3803L0.631287 47.8587C-0.210426 47.0224 -0.210426 45.6542 0.631287 44.8179Z" fill="#F05C3A"/>
</svg>
